<svg width="256.000000pt" height="259.000000pt" viewBox="0 0 256.000000 259.000000" xmlns="http://www.w3.org/2000/svg">
  <g transform="translate(0.000000,259.000000) scale(0.100000,-0.100000)" fill="#f8fcf8" stroke="none">
    <path d="M0 1295 l0 -1295 1280 0 1280 0 0 1295 0 1295 -1280 0 -1280 0 0
-1295z m1419 1099 l40 -16 83 17 83 17 75 -5 75 -5 100 -51 100 -51 70 0 70
-1 -16 -12 c-27 -21 -39 -54 -39 -112 l0 -56 16 -24 16 -25 28 0 c15 0 34 8
43 18 9 10 28 43 42 75 l27 58 -4 59 -3 60 21 0 22 0 6 -31 c3 -17 6 -46 6
-65 l0 -33 -35 -68 c-20 -37 -49 -85 -65 -105 -17 -20 -30 -41 -30 -45 0 -5
24 -23 54 -40 71 -43 162 -156 150 -186 -3 -8 11 -43 30 -79 20 -36 33 -67 30
-70 -3 -3 2 -33 10 -66 9 -33 16 -62 16 -65 0 -3 -10 -3 -21 0 l-22 6 6 -24
c3 -13 9 -42 13 -64 l7 -40 -19 16 c-34 30 -130 79 -153 79 l-23 0 5 -17 c2
-10 8 -26 12 -35 l7 -17 -23 6 -22 6 7 -36 7 -37 -16 0 c-21 0 -30 -27 -16
-44 l12 -14 -11 -190 -11 -191 16 -30 16 -31 -16 0 c-8 0 -15 -3 -15 -8 0 -4
9 -39 20 -77 11 -38 20 -71 20 -72 0 -1 -11 9 -25 22 -13 14 -31 25 -40 25
l-15 0 -1 -27 c0 -16 -4 -37 -9 -48 l-8 -20 -7 17 c-11 28 -33 21 -40 -13 l-7
-30 21 -53 22 -52 -9 -24 -9 -25 -7 25 c-4 14 -21 55 -38 92 l-31 66 -24 11
c-35 16 -47 14 -69 -11 -41 -47 -54 -74 -55 -108 l-1 -35 -8 25 c-4 14 -15 39
-24 55 l-16 30 13 3 c7 1 24 29 39 62 l26 60 17 0 c22 0 75 59 75 84 l0 19 18
-16 c23 -21 42 -22 42 -2 0 8 7 15 15 15 8 0 15 7 15 15 0 8 7 15 16 15 l16 0
-7 32 -7 33 24 -22 c28 -26 48 -30 48 -9 0 8 -14 43 -30 78 l-30 63 20 3 20 3
0 97 c0 53 -5 114 -11 136 l-11 39 10 6 c14 9 12 102 -4 133 -18 34 -18 38 1
38 8 0 15 7 15 16 l0 16 -62 -7 c-35 -4 -68 -11 -74 -16 -7 -6 -17 -23 -24
-39 l-12 -30 10 -13 c5 -6 13 -32 17 -57 4 -24 19 -62 32 -83 l25 -40 -13 -8
-13 -8 12 -26 c7 -14 12 -30 12 -36 l0 -10 -19 11 c-29 15 -41 12 -41 -9 l0
-18 -25 5 -25 4 0 44 c0 23 5 46 10 49 6 3 10 17 10 30 l0 24 -38 10 -37 10 0
43 c0 24 4 46 8 49 14 10 -4 58 -29 78 -13 10 -24 26 -24 35 l0 16 -20 0 c-11
0 -20 -4 -20 -10 0 -5 -7 -10 -15 -10 -8 0 -15 7 -15 15 l0 15 -25 6 c-14 4
-29 4 -32 0 -4 -3 -6 -37 -5 -75 l1 -69 -15 -12 c-7 -7 -14 -18 -14 -26 0 -7
17 -29 38 -48 l37 -36 -32 0 c-18 0 -33 5 -33 10 0 6 -11 10 -25 10 -14 0 -25
-4 -25 -10 0 -5 -13 -10 -30 -10 l-30 0 0 25 0 24 -36 7 c-19 3 -51 4 -71 1
l-35 -6 -39 19 c-21 11 -43 20 -49 20 -5 0 -10 -8 -11 -17 l-1 -18 -5 13 c-2
6 -13 12 -24 12 -10 0 -19 5 -19 10 0 6 -11 10 -25 10 l-25 0 0 -15 c0 -9 11
-28 25 -43 25 -27 33 -52 16 -52 -5 0 -26 7 -47 16 l-38 16 -48 -4 -48 -5 6
23 6 24 -17 0 -18 0 19 21 18 21 4 -11 c2 -6 12 -11 22 -11 l18 0 28 38 c15
20 43 50 61 66 34 30 43 56 19 56 -8 0 -23 -11 -33 -24 -10 -13 -29 -26 -41
-30 -12 -4 -22 -13 -22 -20 0 -7 -11 -23 -25 -36 -14 -13 -25 -18 -25 -12 0 7
-7 12 -15 12 -8 0 -15 5 -15 10 0 6 -6 10 -13 10 -7 0 -27 -30 -45 -67 -18
-38 -32 -72 -32 -77 0 -4 9 -6 20 -3 22 6 23 5 14 -17 -7 -17 -34 -22 -34 -6
0 6 -7 10 -15 10 l-15 0 -1 -27 -1 -28 -5 18 c-7 25 -32 21 -45 -8 l-12 -26
-15 34 c-22 48 -40 67 -63 67 -11 0 -44 -12 -74 -26 l-54 -25 0 -15 0 -14 22
0 21 0 -23 -25 c-13 -14 -33 -25 -45 -25 -13 0 -37 -3 -54 -6 l-31 -6 0 -19 0
-19 41 0 40 0 -22 -39 -22 -39 7 -26 c3 -14 19 -37 34 -52 l27 -26 110 8 c61
4 160 6 222 5 l111 -3 21 21 21 21 0 -15 c0 -9 8 -19 17 -22 10 -4 28 -20 41
-35 24 -29 52 -37 52 -16 0 15 -40 58 -54 58 -6 0 -17 9 -24 20 l-12 20 18 18
c10 10 23 17 30 14 6 -2 19 1 29 6 l18 10 86 -32 86 -31 -34 -120 -35 -120 -8
-100 c-4 -55 -13 -119 -19 -142 l-12 -43 -23 0 c-13 0 -29 7 -36 15 -7 8 -23
15 -36 15 l-24 0 0 -17 0 -16 -18 16 c-21 19 -62 23 -62 6 l0 -11 -26 6 c-15
4 -39 9 -54 13 l-28 5 -7 -33 -8 -34 -8 24 -9 23 -25 -4 -25 -5 0 14 0 14 -17
-2 c-10 -1 -26 1 -36 6 -9 4 -29 5 -42 3 l-25 -5 0 12 c0 7 -7 15 -15 19 l-15
5 6 29 6 28 -26 39 -26 38 6 34 6 33 -16 0 -16 0 0 25 c0 14 -4 25 -9 25 -5 0
-7 9 -4 20 l5 20 14 -11 13 -11 -6 -29 -5 -29 16 0 16 0 0 -20 c0 -11 11 -30
25 -42 14 -12 25 -28 25 -35 0 -22 27 -14 34 10 8 29 8 181 0 229 l-6 36 -33
0 c-17 0 -36 -3 -41 -6 -5 -4 -15 -18 -21 -32 l-12 -25 0 33 -1 32 -12 0 c-7
0 -23 3 -35 6 l-21 6 -7 -21 c-3 -11 -2 -36 4 -56 l10 -36 -60 60 -59 60 6 39
6 39 -60 67 c-34 37 -72 86 -84 109 l-24 42 -22 -1 -22 -1 0 24 c0 14 -7 32
-16 41 l-17 16 12 4 c6 2 11 10 11 18 0 8 5 14 10 14 6 0 10 9 10 20 0 11 7
23 15 26 8 4 15 10 15 15 0 17 51 67 80 79 16 7 31 19 35 27 7 20 -3 53 -17
53 l-10 0 9 13 c5 6 16 45 23 86 l12 73 -12 8 -12 7 18 7 c9 3 24 4 33 1 l16
-5 1 -28 1 -28 25 -27 c25 -27 48 -35 48 -18 0 5 -7 25 -15 45 l-15 36 16 0
c9 0 18 -9 21 -20 3 -11 12 -20 19 -20 l14 0 0 53 0 52 20 38 20 37 0 40 0 40
-12 0 c-7 0 -19 4 -26 9 l-13 8 15 37 c8 20 19 36 24 36 4 0 16 23 26 50 10
28 23 50 30 50 6 0 20 14 30 31 l18 31 47 20 c25 11 75 42 111 68 l65 47 100
31 c148 46 177 49 234 26z m-769 -579 l12 -15 -16 0 c-9 0 -16 7 -16 15 0 8 2
15 4 15 2 0 9 -7 16 -15z m-350 -525 c0 -5 -8 -10 -17 -10 l-18 0 15 10 c19
12 20 12 20 0z m1093 -70 c9 0 17 -5 17 -11 0 -7 8 -18 18 -25 l17 -13 -37 -1
-38 0 0 15 c0 7 -6 18 -13 22 -8 4 -16 19 -20 32 l-6 23 23 -21 c12 -11 30
-21 39 -21z m364 12 c-10 -10 -17 -31 -17 -46 l0 -28 -20 -5 c-19 -5 -29 -33
-11 -33 11 0 23 -29 16 -40 -3 -4 -14 -6 -25 -3 l-20 5 0 18 c0 10 -7 25 -15
34 -8 8 -15 19 -15 25 0 6 -9 11 -20 11 -11 0 -20 3 -20 8 0 4 -3 17 -6 30
l-6 22 10 0 c6 0 12 -10 14 -22 l3 -23 33 -3 34 -3 19 17 c10 9 19 23 19 31 0
7 7 13 15 13 8 0 15 5 15 12 0 6 3 8 7 5 3 -4 -1 -15 -10 -25z m-249 -10 l39
6 -11 -30 -11 -30 -3 20 -3 21 -31 3 -31 3 -4 15 -5 15 10 -14 10 -14 40 5z
m-287 -84 l24 -8 -72 5 -72 5 -15 -15 c-8 -8 -23 -15 -33 -15 l-17 0 24 18
c14 9 48 24 75 33 l50 15 6 -15 c3 -9 17 -19 30 -23z m277 -23 c7 -14 12 -35
12 -47 l0 -20 -31 6 c-17 3 -44 6 -60 6 l-29 0 0 40 0 40 48 0 49 0 11 -25z
m142 1 l0 -24 -15 -6 c-8 -3 -15 -2 -15 2 0 4 -3 17 -6 30 l-6 22 21 0 21 0 0
-24z m-310 -16 c0 -11 5 -20 10 -20 6 0 10 -4 10 -9 0 -4 -26 -8 -57 -8 l-57
0 -4 -12 c-2 -6 -16 -11 -32 -11 -16 0 -30 -4 -32 -9 -1 -5 -16 -12 -33 -15
l-30 -6 28 11 c15 6 27 14 27 19 0 4 14 10 30 14 l30 6 0 14 0 14 20 -5 c11
-3 31 -2 45 1 l25 6 0 15 c0 8 5 15 10 15 6 0 10 -9 10 -20z m663 -10 c4 -4 5
-19 2 -33 l-7 -26 -24 11 -24 11 -18 -19 c-9 -11 -22 -29 -28 -40 -6 -10 -19
-21 -29 -22 -10 -2 -28 -16 -41 -30 l-22 -27 -29 28 c-16 15 -36 27 -45 27
-21 0 -26 -25 -20 -91 l5 -54 23 -28 c26 -31 27 -38 18 -86 l-7 -32 -23 16
c-29 19 -58 19 -73 2 -6 -8 -30 -22 -53 -32 -24 -10 -53 -28 -65 -39 l-23 -19
0 14 c0 8 14 23 30 34 16 11 30 25 30 30 0 6 14 18 30 27 l30 17 0 36 c0 19 5
35 10 35 6 0 10 11 10 24 l0 24 16 6 16 6 -4 30 c-3 17 -1 30 4 30 4 0 8 6 8
14 0 8 -13 23 -30 33 -16 9 -30 21 -30 26 l0 9 23 -6 c12 -4 34 -9 50 -12 l27
-6 0 9 c0 6 20 13 45 16 25 2 54 12 64 21 10 9 26 34 37 55 l18 38 46 -10 c25
-5 49 -12 53 -17z m-966 3 c-4 -3 -10 -3 -14 0 -3 4 0 7 7 7 7 0 10 -3 7 -7z
m-47 -17 c0 -2 -9 -6 -20 -9 l-20 -5 6 9 c5 9 34 13 34 5z m709 -32 c1 -1 0
-7 -3 -13 -8 -13 -33 -4 -40 15 l-6 15 23 -7 c12 -3 24 -8 26 -10z m-36 -469
c20 -14 37 -27 37 -29 0 -1 -13 -1 -30 2 -16 2 -30 8 -30 13 0 5 -7 9 -15 9
-8 0 -15 -4 -15 -9 0 -5 -11 -11 -25 -13 l-25 -5 12 16 c15 18 40 40 48 41 3
0 22 -11 43 -25z m-186 -82 c-4 -3 -7 0 -7 7 0 7 3 10 7 7 3 -4 3 -10 0 -14z
m-730 -115 l-5 -13 -1 19 c-1 11 2 17 5 13 3 -3 4 -12 1 -19z" />
    <path d="M1135 1984 c-61 -50 -95 -90 -95 -109 1 -11 7 -49 15 -85 8 -36 14
-102 15 -147 l0 -83 14 0 c8 0 18 5 21 10 3 6 15 10 26 10 l19 0 0 14 c0 8 -5
16 -11 18 l-12 4 13 21 c8 12 26 24 42 27 l28 6 0 15 c0 8 7 15 14 15 8 0 27
11 42 25 15 14 30 22 33 19 3 -4 0 -9 -6 -11 -19 -7 -16 -31 5 -36 l17 -5 -17
-1 -18 -1 0 -34 0 -34 -15 -12 c-8 -7 -15 -19 -15 -26 0 -25 36 -15 70 21 19
19 42 35 52 35 l18 0 0 20 0 20 20 0 20 0 0 25 c0 14 5 25 10 25 6 0 10 11 10
24 0 30 -20 86 -30 86 -5 0 -21 -11 -36 -25 l-27 -25 -41 1 -41 0 67 32 68 32
0 23 c0 28 -21 71 -48 95 l-19 18 -84 9 c-46 6 -86 10 -89 10 -3 -1 -18 -12
-35 -26z m135 -49 l10 -25 19 0 c29 0 33 -15 12 -34 -11 -10 -22 -28 -25 -42
-4 -13 -11 -24 -16 -24 -13 0 -13 17 0 25 13 8 13 45 0 45 -5 0 -12 11 -16 25
l-6 25 -24 6 c-34 9 -30 24 6 24 l30 0 10 -25z m-78 -97 l-12 -12 0 24 0 24
12 -12 12 -12 -12 -12z m-22 -52 c0 -3 -5 -8 -12 -12 l-11 -7 7 11 c7 12 16
16 16 8z" />
    <path d="M1230 1665 c0 -8 7 -15 15 -15 8 0 15 7 15 15 0 8 -7 15 -15 15 -8 0
-15 -7 -15 -15z" />
    <path d="M1393 1590 c-35 -16 -63 -34 -63 -40 0 -5 -7 -10 -15 -10 -8 0 -15
-7 -15 -15 0 -15 26 -21 32 -7 5 11 124 72 142 72 9 0 16 7 16 15 l0 15 -17 0
c-10 0 -46 -13 -80 -30z" />
    <path d="M1577 1593 c-10 -9 -9 -63 1 -63 13 0 33 -89 26 -115 l-6 -25 36 0
35 0 11 19 c14 27 13 60 -4 77 l-14 14 5 21 c3 12 14 24 25 26 10 3 18 12 18
20 l0 15 -25 -6 -25 -6 -30 15 c-32 17 -43 18 -53 8z" />
    <path d="M1720 1575 c0 -8 7 -15 15 -15 8 0 15 7 15 15 0 8 -7 15 -15 15 -8 0
-15 -7 -15 -15z" />
    <path d="M1170 1522 c0 -4 -10 -12 -22 -17 -13 -6 -24 -18 -26 -27 l-3 -18 15
0 c9 0 21 9 28 20 7 11 18 20 25 20 7 0 13 7 13 15 0 8 -7 15 -15 15 -8 0 -15
-3 -15 -8z" />
    <path d="M1453 1482 c-29 -14 -53 -32 -53 -39 0 -7 4 -13 10 -13 21 0 120 55
120 67 0 19 -18 15 -77 -15z" />
    <path d="M1483 1433 l-43 -15 0 -14 c0 -8 3 -14 6 -14 4 0 28 8 55 17 27 10
49 23 49 30 0 16 -14 15 -67 -4z" />
    <path d="M1430 1105 l0 -15 25 0 25 0 0 15 0 15 -25 0 -25 0 0 -15z" />
  </g>
  <g transform="translate(0.000000,259.000000) scale(0.100000,-0.100000)" fill="#000000" stroke="none">
    <path d="M1300 2413 c-14 -2 -70 -18 -125 -35 l-100 -31 -65 -47 c-36 -26 -86
-57 -111 -68 l-47 -20 -18 -31 c-10 -17 -23 -31 -30 -31 -6 0 -19 -21 -29 -46
-10 -26 -26 -55 -35 -64 -10 -10 -21 -32 -25 -49 -4 -17 -11 -31 -15 -31 -10
0 -50 -85 -50 -105 0 -7 -14 -15 -30 -19 l-30 -6 -6 -28 -6 -28 -31 -19 -32
-19 23 -4 24 -4 -5 -21 c-3 -12 -9 -40 -12 -62 -4 -22 -11 -50 -17 -62 l-11
-22 16 -16 c21 -21 13 -40 -24 -55 -16 -7 -39 -24 -49 -38 l-20 -25 0 27 c0
43 -38 140 -63 158 -12 10 -26 18 -32 18 -5 0 0 -8 12 -18 29 -22 59 -94 67
-158 l6 -52 -14 -5 -15 -6 5 13 c3 7 -15 40 -40 74 -42 57 -87 92 -118 92 -7
0 5 -9 27 -19 l40 -18 43 -75 c41 -72 52 -108 32 -108 -5 0 -16 11 -25 23 -23
36 -93 89 -138 104 l-40 14 -11 -11 -10 -10 28 0 c15 0 43 -7 62 -16 32 -15
94 -78 114 -115 l9 -16 -14 0 c-8 0 -12 3 -10 7 2 3 -21 23 -52 43 l-56 37
-48 0 c-53 0 -77 -16 -26 -18 18 0 47 -2 65 -3 l33 -2 -13 -9 -13 -9 22 6 c23
6 40 -9 22 -21 l-12 -7 6 10 7 11 -23 -1 c-12 0 -38 3 -57 7 l-35 7 -20 -14
-20 -15 47 5 46 5 57 -26 56 -26 -6 -10 c-3 -5 -12 -10 -18 -10 l-12 0 15 11
15 11 -44 -7 c-52 -7 -84 -22 -76 -36 4 -5 -4 -19 -17 -30 l-23 -20 34 17 34
16 51 -7 c28 -3 61 -7 72 -8 l21 -2 -2 -15 c-1 -8 -17 -25 -36 -38 -19 -13
-38 -31 -43 -40 l-9 -17 20 18 c11 10 34 22 52 27 l31 9 0 -15 c0 -8 -5 -14
-12 -14 -18 0 -106 -59 -112 -76 l-6 -16 29 24 c15 14 43 30 61 38 l32 13 9
-14 9 -14 -17 -10 c-31 -18 -83 -73 -83 -86 0 -8 10 0 21 18 l20 32 34 11 c19
6 39 9 45 5 15 -9 12 6 -4 24 l-14 16 -7 112 -7 112 26 26 c14 14 33 39 41 55
l15 30 39 19 c21 11 41 27 45 36 3 9 19 21 36 26 16 6 30 17 30 25 l0 14 -35
0 -35 0 0 35 0 35 42 -17 c24 -9 46 -21 49 -26 10 -15 40 0 46 23 3 11 9 20
14 20 5 0 9 7 9 15 0 8 -7 15 -15 15 -8 0 -15 5 -15 10 0 6 5 10 11 10 6 0 9
10 7 22 l-3 21 -53 17 c-29 10 -55 20 -58 23 -4 3 1 16 10 29 l16 22 0 -16 c0
-10 9 -22 19 -28 25 -13 41 -13 21 0 l-15 10 27 -2 c15 -1 26 -5 26 -8 0 -3 0
-12 2 -20 l1 -15 9 20 9 20 0 -36 1 -36 25 -13 c14 -7 28 -10 32 -7 3 4 1 25
-6 48 l-12 41 18 44 18 44 18 0 c10 0 32 7 50 16 l32 16 -22 -21 c-12 -11 -29
-21 -37 -21 -14 0 -56 -61 -56 -82 l0 -10 20 5 19 5 -14 -35 c-18 -44 -19 -53
-2 -53 8 0 24 23 37 51 14 28 26 46 28 40 6 -17 30 -13 35 7 l5 17 1 -25 c2
-43 13 -70 27 -70 l14 0 0 52 0 51 18 -16 c22 -20 42 -22 42 -4 0 6 -9 27 -20
45 l-20 32 -20 0 -19 0 6 16 6 15 10 -10 c6 -6 20 -11 32 -11 27 0 45 -18 45
-47 l0 -23 15 0 14 0 -3 48 -3 47 -32 14 c-17 8 -31 18 -31 22 0 15 51 68 85
88 l34 20 6 -10 c4 -5 13 -9 21 -9 9 0 22 -7 30 -15 9 -8 27 -18 41 -21 l26
-7 32 12 c17 6 57 11 89 11 l57 0 -3 18 c-2 9 -26 29 -53 44 l-50 28 30 0 c41
0 107 -32 132 -64 12 -14 28 -26 37 -26 l16 0 1 28 c0 15 3 21 6 15 2 -7 11
-13 18 -13 8 0 19 -9 24 -19 l11 -19 -15 -12 c-8 -7 -15 -21 -15 -31 0 -10 -4
-20 -9 -23 -5 -4 -12 -29 -16 -57 l-7 -51 12 -8 11 -7 -31 -27 c-17 -14 -40
-26 -51 -26 -10 0 -19 -4 -19 -10 0 -11 -94 -40 -129 -40 l-26 1 45 25 c25 13
34 22 21 18 l-24 -6 7 10 6 10 -22 -2 c-28 -4 -90 -40 -83 -49 3 -4 2 -5 -1
-2 -4 2 -23 -4 -43 -15 l-37 -19 -27 -40 -27 -41 22 -1 23 -1 -15 -5 c-8 -2
-22 -7 -30 -10 -8 -4 -19 -7 -24 -7 -13 -1 -31 -34 -24 -42 4 -4 27 -1 50 6
24 6 55 14 71 17 l27 5 0 -9 c0 -5 -15 -15 -32 -22 l-33 -13 -42 -61 c-23 -34
-51 -83 -63 -109 l-22 -48 -73 -62 c-40 -35 -77 -71 -83 -80 -19 -28 3 -29 46
-1 l41 27 -6 10 c-4 6 0 5 9 -2 l16 -13 30 26 c32 27 61 31 94 14 11 -6 22 -8
25 -5 3 3 -8 12 -26 19 l-31 13 56 18 57 18 43 -7 44 -6 0 16 0 17 13 -5 12
-4 -3 -23 -4 -23 26 5 25 5 6 -14 c7 -20 -1 -30 -30 -35 l-24 -5 5 8 c3 5 4 9
2 9 -2 0 -48 -15 -103 -33 -55 -18 -119 -45 -142 -61 -41 -28 -167 -66 -190
-59 -7 3 -13 0 -13 -6 0 -6 8 -11 19 -11 l19 0 5 -20 c3 -11 0 -36 -6 -55
l-10 -35 -71 0 -71 0 -27 25 c-14 13 -29 33 -33 44 l-6 20 25 39 c14 22 22 43
19 46 -4 3 -24 6 -45 6 -21 0 -38 4 -38 9 0 9 48 21 85 21 l23 0 31 35 c17 20
31 42 31 50 0 8 9 20 20 27 11 7 20 18 20 25 0 22 -27 14 -44 -12 -9 -14 -14
-25 -10 -25 4 0 1 -7 -7 -16 l-13 -15 -23 6 -23 5 0 -15 c0 -8 5 -15 11 -15
l11 0 -11 -14 c-6 -7 -30 -16 -52 -20 -50 -8 -79 -22 -79 -39 0 -7 13 -26 30
-44 l29 -31 -16 -6 c-17 -7 -29 1 -80 48 -54 49 -50 20 5 -38 29 -30 52 -62
52 -72 l0 -16 -48 6 c-26 4 -59 12 -74 17 -27 11 -44 45 -25 52 l11 3 -17 7
-17 6 0 -15 c0 -42 34 -66 113 -79 l37 -6 14 -34 c8 -19 24 -40 35 -47 l21
-13 0 -33 c0 -18 -7 -40 -15 -48 -19 -20 -19 -35 0 -28 l15 6 0 -11 c0 -6 -4
-11 -9 -11 -7 0 -31 -73 -31 -94 0 -3 12 1 27 9 15 8 29 12 31 10 6 -6 -19
-65 -27 -65 -7 0 -33 -62 -28 -66 1 -2 13 6 27 17 l25 19 -20 -6 -20 -6 11 9
c5 4 20 33 33 63 13 30 28 61 35 69 l11 14 -22 -11 c-12 -7 -25 -17 -28 -22
-3 -6 -13 -10 -21 -10 l-14 0 0 20 c0 11 4 20 8 20 11 0 32 58 22 62 -4 2 -5
21 -1 43 l7 40 12 -22 c12 -22 50 -49 57 -41 2 2 -2 23 -10 46 -8 22 -12 48
-9 57 l6 16 14 -12 c7 -6 18 -8 24 -4 l10 6 0 -19 c0 -10 -7 -40 -16 -66 l-17
-48 10 -7 c6 -3 9 -18 8 -32 l-3 -27 19 5 c19 5 26 -7 12 -21 -5 -4 -8 -18 -8
-31 -1 -14 1 -22 3 -20 9 8 53 -68 48 -81 l-5 -14 -41 0 -41 0 7 13 c4 6 14
20 22 30 l15 17 -12 0 c-6 0 -30 -9 -51 -20 -41 -21 -54 -17 -22 6 l17 13 -17
1 c-18 0 -31 -15 -35 -43 l-3 -17 40 20 c21 11 42 20 46 20 3 0 -1 -11 -10
-25 l-16 -25 40 0 40 0 -41 -37 c-36 -32 -69 -80 -69 -99 0 -3 7 -1 15 6 l15
12 0 -38 0 -39 10 15 10 15 0 -54 0 -55 12 12 c7 7 14 12 18 12 3 0 3 -26 1
-57 l-3 -58 18 16 c11 8 27 14 37 12 l17 -4 0 -25 c0 -13 4 -24 10 -24 5 0 18
17 29 38 l20 37 1 -37 c0 -20 5 -40 10 -43 6 -3 10 0 10 7 1 7 7 -1 14 -18 8
-17 21 -34 30 -37 l16 -6 0 52 c0 29 4 58 9 66 l9 13 15 -43 c9 -24 20 -57 25
-74 l9 -30 7 43 c4 23 12 42 17 42 6 0 7 5 3 12 l-7 11 11 -7 c7 -4 12 -21 12
-37 l0 -30 11 6 c6 4 8 14 5 22 l-6 14 10 -6 c14 -9 12 8 -4 30 l-14 19 -25
-11 -25 -11 4 -29 4 -28 -17 50 c-9 28 -18 51 -19 53 -1 1 -11 4 -22 7 l-20 4
-6 -15 c-3 -8 -3 -35 1 -59 l6 -45 -11 0 c-6 0 -16 16 -22 35 -6 19 -16 35
-21 35 -5 0 -9 9 -9 20 0 11 5 20 10 20 6 0 10 9 10 20 l0 19 -14 -5 c-7 -3
-25 -26 -40 -52 l-27 -47 5 38 5 39 -14 -6 c-8 -3 -15 -1 -15 4 0 16 -22 11
-37 -8 l-14 -17 4 40 c2 22 7 48 12 59 l8 18 -26 -17 -27 -17 0 56 0 56 -21
21 -21 21 51 49 51 50 26 -28 25 -27 204 -3 204 -4 41 38 c39 34 100 136 100
165 0 7 14 65 31 129 l32 117 64 -35 c34 -19 63 -33 63 -30 0 2 -26 20 -59 40
-32 20 -61 45 -64 56 l-5 19 22 -3 c11 -1 56 -17 99 -34 l77 -33 0 -14 c0 -7
-9 -18 -19 -24 l-19 -10 5 -20 5 -20 -11 0 -11 0 0 -35 0 -36 -30 -17 c-16 -9
-30 -21 -30 -27 0 -5 -14 -19 -30 -30 -16 -11 -30 -25 -30 -32 0 -6 -9 -27
-19 -45 -11 -18 -23 -53 -27 -77 l-7 -44 14 5 14 5 3 45 3 45 42 34 c23 19 62
44 87 56 25 13 52 28 62 35 l16 12 36 -28 c20 -15 36 -26 37 -24 0 2 2 31 5
64 l5 61 -25 30 -25 30 -2 57 c-1 31 1 59 5 63 3 4 19 -6 34 -20 16 -15 34
-27 42 -27 7 0 21 7 30 15 l16 14 54 -14 c30 -8 56 -13 58 -11 2 2 -23 12 -55
22 l-58 18 24 6 c13 3 29 14 35 25 6 10 18 27 26 36 l16 18 14 -9 c27 -17 39
-10 46 25 3 19 11 35 18 35 6 0 23 -7 36 -16 l25 -16 -29 27 c-16 14 -34 24
-41 22 l-12 -5 5 24 4 24 18 -10 c10 -6 23 -10 29 -10 14 0 14 36 0 62 l-11
20 21 -7 c12 -3 21 -4 21 -1 0 3 -15 30 -34 59 l-35 54 -4 42 c-2 23 -9 47
-15 53 l-11 11 22 43 c12 24 28 44 36 44 l13 0 -7 23 c-4 12 -6 34 -6 49 l1
27 -22 3 -22 3 -7 33 c-4 18 -15 42 -24 52 l-18 20 13 15 c7 8 19 15 26 15
l14 0 0 20 0 21 -30 6 -30 6 0 13 c0 8 5 14 10 14 6 0 10 6 10 14 l0 15 -32 3
-33 3 3 22 3 21 -21 7 c-11 4 -37 22 -58 41 -20 19 -40 34 -43 34 -4 0 -12 13
-19 29 -6 16 -22 39 -36 52 -13 12 -24 28 -24 34 0 14 -57 68 -87 84 -12 6
-37 11 -55 11 -18 0 -40 5 -48 11 l-15 10 50 -6 50 -7 75 -39 c42 -21 81 -39
88 -39 l13 0 -6 -47 -7 -48 22 -22 21 -23 44 0 44 0 15 -16 c9 -8 16 -22 16
-31 l0 -16 48 7 47 6 15 -10 15 -10 -12 0 c-22 0 -14 -28 16 -62 15 -18 33
-43 39 -55 l12 -21 -12 -4 -11 -4 11 -32 11 -32 -9 0 c-5 0 -11 -13 -15 -29
l-6 -29 23 -70 24 -71 -18 -4 -17 -5 24 -51 c28 -56 30 -71 14 -71 l-11 0 6
-15 c3 -8 9 -22 13 -31 l6 -16 -20 6 -20 6 18 -52 18 -53 1 -92 0 -93 -20 0
c-11 0 -20 -6 -20 -12 0 -7 14 -42 30 -76 17 -35 30 -66 30 -70 0 -3 -10 4
-22 15 -13 11 -29 24 -37 28 l-14 8 5 -37 4 -36 -13 0 c-7 0 -13 -7 -13 -15 0
-8 -7 -15 -15 -15 -8 0 -15 -7 -15 -16 l0 -15 -27 21 -28 22 -5 -24 c-7 -32
-32 -68 -48 -68 l-13 0 7 -12 7 -11 -21 5 -20 6 -28 -62 c-15 -33 -34 -66 -42
-72 l-15 -11 8 -13 8 -13 -17 6 c-10 4 -27 2 -39 -4 l-21 -12 -91 1 -90 1 -29
-32 c-16 -17 -35 -46 -43 -64 l-13 -33 10 -20 c5 -10 10 -21 10 -25 0 -8 -43
16 -52 29 l-8 11 0 -12 c0 -6 5 -15 10 -18 6 -3 10 -11 10 -16 l0 -10 -20 6
-20 6 0 -10 c0 -6 -6 -8 -14 -5 l-14 5 -6 -19 c-4 -11 -2 -31 4 -46 5 -15 10
-29 10 -32 0 -2 -11 3 -25 12 l-26 17 4 -37 c2 -20 7 -39 12 -43 l8 -8 -6 33
c-4 17 -4 32 -1 32 2 0 16 -7 29 -16 14 -9 25 -14 25 -11 0 2 -7 21 -15 40 -8
20 -12 43 -9 51 l6 16 31 -17 32 -16 -20 22 -19 22 28 -11 28 -10 -6 15 c-3 8
-1 15 5 15 5 0 24 -23 41 -50 17 -28 33 -48 35 -46 2 2 -12 36 -32 75 l-35 71
20 40 c11 22 31 47 44 56 l25 15 64 -3 c36 -2 64 -5 62 -6 -6 -6 29 -42 41
-42 6 0 18 10 26 22 l15 23 28 -15 c15 -8 36 -32 47 -54 l20 -39 9 14 c5 8 9
27 9 43 l0 29 41 -7 c23 -4 54 -13 70 -21 15 -8 35 -15 43 -15 l16 0 22 -42
22 -43 4 20 c2 11 8 24 13 29 5 6 9 18 9 28 l0 18 24 -12 25 -11 35 -70 34
-70 13 42 c12 39 28 55 30 29 1 -26 18 29 18 62 1 19 4 45 7 56 6 24 49 48 66
38 l10 -7 -5 19 c-23 76 -20 88 15 57 l18 -17 10 10 9 9 -14 55 c-15 58 -16
100 -3 100 13 0 -3 129 -23 190 -10 30 -18 47 -19 38 0 -10 7 -36 16 -58 l16
-41 -5 -34 -6 -35 10 -5 c11 -8 12 -45 0 -45 -13 0 -11 -48 4 -110 8 -30 12
-56 10 -59 -3 -2 -13 3 -22 11 -10 8 -24 19 -32 23 l-14 8 7 -47 7 -46 -28
-12 c-34 -16 -63 -39 -63 -51 l0 -9 13 10 12 10 -3 -49 -4 -49 -18 0 -18 0 -6
-35 -7 -36 -32 61 -31 62 -30 15 -30 16 -4 -12 c-2 -6 -7 -9 -11 -6 -5 2 -6
-6 -4 -19 l5 -24 -13 -7 -12 -8 7 11 c4 6 0 25 -9 42 l-16 31 -13 -10 -13 -11
-56 20 c-31 11 -68 20 -82 20 l-25 0 -1 -37 0 -38 -12 35 c-7 19 -10 37 -6 40
3 3 9 14 13 25 3 11 21 37 39 58 l33 38 26 -12 c15 -6 32 -25 39 -40 12 -30
32 -38 46 -16 4 6 13 28 19 47 l11 35 10 -35 9 -35 13 23 c7 13 15 42 19 65
l8 42 25 -26 c14 -14 28 -32 31 -40 l5 -14 9 8 8 8 -13 57 c-7 31 -14 64 -15
72 -1 9 -6 22 -11 30 l-9 15 16 -13 17 -13 -5 -17 -6 -17 13 19 12 19 -23 54
-22 54 6 62 c3 34 9 119 12 188 l6 127 -11 6 c-16 10 -4 26 20 26 l20 0 -7 23
c-4 12 -9 29 -12 37 l-6 15 27 -18 27 -17 0 10 c0 6 -6 25 -14 44 l-14 33 14
0 c7 0 10 -5 7 -10 l-6 -10 11 7 c22 13 12 46 -26 89 -21 23 -43 50 -50 59
l-13 16 20 -5 21 -5 0 16 c0 9 -6 32 -14 51 l-15 35 16 60 15 61 -12 14 -12
15 11 0 c6 0 11 4 11 9 0 20 -61 100 -80 106 -21 7 -28 25 -9 25 24 0 126 -71
155 -107 39 -49 55 -79 46 -87 -3 -4 10 -39 30 -79 20 -40 43 -102 51 -139
l14 -68 -18 0 c-21 0 -22 -8 -9 -65 l9 -39 -9 -6 c-5 -3 -7 -16 -3 -29 l6 -23
8 14 9 13 10 -15 c13 -20 12 -8 -4 68 l-14 62 14 -11 14 -11 6 16 c3 9 0 39
-7 68 -7 29 -12 62 -11 73 1 11 -14 48 -33 82 l-34 62 16 -6 17 -7 -29 50
c-46 79 -94 132 -151 166 l-52 32 28 35 c16 20 45 67 65 104 l35 68 0 43 c0
24 -3 58 -6 75 l-6 31 -30 0 c-16 0 -41 -9 -55 -20 l-26 -20 -91 0 -91 0 -100
51 -100 51 -85 5 -85 5 -77 -15 -77 -16 -35 14 c-34 14 -73 17 -126 8z m125
-63 c8 -13 -15 -13 -35 0 l-15 10 22 0 c12 0 25 -4 28 -10z m192 3 c-4 -3 -10
-3 -14 0 -3 4 0 7 7 7 7 0 10 -3 7 -7z m288 -29 l30 -13 -20 0 c-11 0 -38 9
-60 19 l-40 19 30 -6 c17 -3 44 -12 60 -19z m-670 -14 c3 -5 4 -10 1 -10 -3 0
-8 5 -11 10 -3 6 -4 10 -1 10 3 0 8 -4 11 -10z m960 -138 c-30 -66 -51 -92
-75 -92 -10 0 -25 11 -34 25 l-16 24 0 46 c0 50 13 84 39 100 9 6 36 17 61 25
l45 15 3 -43 3 -43 -26 -57z m-628 132 c-3 -3 -12 -4 -19 -1 l-13 5 19 1 c11
1 17 -2 13 -5z m243 -19 c17 -9 30 -18 30 -21 0 -4 -59 23 -69 32 -10 9 13 3
39 -11z m-100 -15 l25 -8 -25 0 c-14 0 -36 4 -50 8 l-25 8 25 0 c14 0 36 -4
50 -8z m-534 -48 c-10 -2 -22 0 -28 6 l-10 10 29 -6 28 -6 -19 -4z m-256 -5
c0 -2 -13 -13 -30 -25 -16 -13 -30 -18 -30 -13 0 6 12 17 28 25 29 17 32 18
32 13z m97 -74 c-4 -3 -10 -3 -14 0 -3 4 0 7 7 7 7 0 10 -3 7 -7z m277 -28 c3
-8 2 -15 -3 -15 -5 0 -14 7 -21 15 l-12 15 15 0 c8 0 17 -7 21 -15z m226 -20
c0 -5 -5 -3 -10 5 -5 8 -10 20 -10 25 0 6 5 3 10 -5 5 -8 10 -19 10 -25z m127
-47 l-5 -13 -1 19 c-1 11 2 17 5 13 3 -3 4 -12 1 -19z m-888 -44 c-15 -18 -22
-13 -13 10 3 9 10 13 16 10 l9 -6 -12 -14z m192 -13 l-36 -39 -33 -7 c-18 -4
-42 -16 -52 -28 l-20 -21 0 15 c0 9 12 26 26 40 l25 24 -4 22 -4 22 36 4 c20
2 50 4 67 5 l31 2 -36 -39z m775 -45 c4 -12 20 -40 36 -63 l29 -43 -31 0 -30
0 0 21 c0 12 -19 56 -41 98 l-42 76 36 -34 c20 -19 40 -44 43 -55z m-975 -6
c17 0 9 -59 -15 -105 l-23 -47 -8 12 c-11 18 -8 81 5 94 13 13 13 26 -1 26
-13 0 -34 -58 -32 -88 l2 -24 -14 12 -14 12 19 51 c20 53 36 70 58 62 8 -3 18
-5 23 -5z m957 -132 c-6 -18 -26 -50 -46 -70 l-35 -37 5 -25 5 -26 -18 0 -19
0 -15 36 c-8 20 -15 56 -15 80 l0 44 33 1 c24 0 95 18 114 28 1 1 -3 -14 -9
-31z m122 -69 c0 -26 7 -66 15 -89 8 -23 15 -59 15 -80 l0 -37 -40 -7 c-23 -3
-49 -12 -60 -18 -25 -16 -36 -4 -22 26 l11 25 45 6 46 7 0 14 0 14 -49 0 -49
0 -7 37 -7 36 18 40 c10 22 30 52 44 66 l25 26 7 -10 c4 -5 8 -31 8 -56z
m-1167 -51 l17 -43 -13 16 -12 17 -38 -3 -37 -2 0 23 0 23 23 4 c12 2 27 5 33
6 6 0 18 -18 27 -41z m757 12 c0 -5 -9 -10 -19 -10 l-19 0 -53 -55 c-29 -30
-57 -55 -62 -55 -6 0 -3 8 6 18 10 10 17 32 17 49 l0 30 38 11 c33 10 62 17
85 21 4 0 7 -3 7 -9z m50 -17 c0 -5 -16 -25 -35 -45 l-34 -38 -21 0 -21 0 6
10 c3 6 19 17 36 25 l29 16 0 19 0 20 20 0 c11 0 20 -3 20 -7z m-217 -71 c-5
-10 -23 -18 -38 -20 l-28 -4 -8 14 c-5 7 -8 22 -8 33 l0 20 10 -23 9 -23 22 3
23 3 4 30 3 30 11 -23 11 -24 -11 -16z m295 30 c2 -7 -3 -12 -12 -12 -9 0 -16
7 -16 16 0 17 22 14 28 -4z m-71 -39 c-4 -3 -10 -3 -14 0 -3 4 0 7 7 7 7 0 10
-3 7 -7z m142 -22 l19 -19 -16 -7 c-9 -4 -26 -9 -37 -10 -11 -2 -38 -11 -60
-20 l-40 -17 18 19 c9 11 17 29 17 40 0 11 3 23 7 26 3 4 21 7 40 7 l33 0 19
-19z m-239 -16 c0 -2 -10 -9 -22 -15 l-23 -11 19 15 c21 17 26 19 26 11z m287
-12 c-4 -3 -10 -3 -14 0 -3 4 0 7 7 7 7 0 10 -3 7 -7z m-17 -14 l15 -11 -12
-5 -13 -5 10 -19 11 -19 -13 -1 c-7 -1 -24 -3 -38 -4 -22 -2 -70 -13 -128 -31
-9 -3 15 12 53 33 39 21 69 44 68 50 l-2 11 22 -5 22 -5 -15 11 c-8 6 -10 11
-5 11 6 0 17 -5 25 -11z m-405 -39 c-19 -21 -37 -23 -36 -5 0 8 15 15 50 24 2
1 -4 -8 -14 -19z m176 -26 c-31 -17 -57 -27 -59 -23 -2 5 -17 9 -32 9 -36 0
-46 15 -21 32 l18 13 75 0 75 0 -56 -31z m416 29 c-4 -3 -10 -3 -14 0 -3 4 0
7 7 7 7 0 10 -3 7 -7z m-677 -7 c0 -2 -8 -10 -17 -17 l-18 -14 14 18 c13 16
21 21 21 13z m120 1 c0 -2 -10 -12 -22 -23 l-23 -19 19 23 c18 21 26 27 26 19z
m585 -37 c13 -12 25 -30 28 -41 l5 -19 -10 0 c-6 0 -8 -8 -5 -19 l4 -18 -18 4
c-25 7 -24 -4 4 -29 l22 -20 -22 5 -23 5 0 -13 0 -12 55 -18 c53 -16 66 -30
46 -50 -5 -6 -11 -28 -13 -50 l-3 -40 -40 2 c-22 1 -64 5 -92 8 l-53 6 0 23
c0 13 9 31 19 40 l19 18 49 -21 48 -21 -25 20 c-14 11 -34 23 -45 26 -11 4
-41 30 -67 57 l-47 51 15 18 16 17 -3 45 -4 45 20 5 c11 2 37 3 58 1 l39 -3
23 -22z m-185 -8 c0 -7 -5 -22 -10 -33 l-11 -19 -24 0 c-14 0 -25 5 -25 10 0
6 -8 10 -17 10 l-18 0 32 16 c18 9 31 19 29 23 -2 3 7 6 20 6 l24 0 0 -13z
m-453 -9 c-4 -3 -10 -3 -14 0 -3 4 0 7 7 7 7 0 10 -3 7 -7z m-87 -7 c0 -3 -5
-8 -12 -12 l-11 -7 7 11 c7 12 16 16 16 8z m44 -42 c-15 -19 -31 -34 -37 -34
-6 0 4 15 21 33 18 18 29 37 25 42 l-8 8 13 -7 12 -7 -26 -35z m71 -2 c-3 -3
-11 0 -18 7 l-12 12 18 -7 c10 -3 15 -9 12 -12z m-1008 1 c-4 -3 -10 -3 -14 0
-3 4 0 7 7 7 7 0 10 -3 7 -7z m844 -37 l-33 -34 7 -14 8 -13 -8 8 c-5 4 -17
-1 -28 -10 l-20 -18 12 22 c6 12 16 25 21 28 6 4 7 11 4 17 l-7 11 10 -6 c6
-4 21 5 33 18 13 14 26 25 29 25 3 0 -10 -15 -28 -34z m-771 0 c0 -3 -5 -8
-12 -12 l-11 -7 7 11 c7 12 16 16 16 8z m970 -6 c0 -5 -7 -10 -15 -10 -8 0
-15 5 -15 10 0 6 7 10 15 10 8 0 15 -4 15 -10z m191 -35 c21 4 52 4 69 0 l31
-7 -3 -21 -3 -22 -30 -6 c-49 -11 -125 -10 -146 1 -31 17 -22 4 14 -19 l32
-22 -30 7 c-30 7 -69 34 -112 76 l-23 22 13 8 c6 4 18 8 26 8 l13 0 -11 -14
-11 -13 27 -18 c16 -10 22 -12 16 -4 -19 19 -16 28 7 22 23 -6 26 7 8 26 -7 7
7 3 30 -9 l44 -21 39 6z m-381 -18 c0 -2 -8 -11 -18 -20 l-19 -17 0 15 c0 8 4
12 8 9 4 -2 10 0 14 6 6 10 15 14 15 7z m-843 -14 c-4 -3 -10 -3 -14 0 -3 4 0
7 7 7 7 0 10 -3 7 -7z m110 0 c-4 -3 -10 -3 -14 0 -3 4 0 7 7 7 7 0 10 -3 7
-7z m-42 -13 c-3 -5 -25 -9 -48 -8 l-42 1 45 7 c25 4 46 8 48 8 2 1 0 -2 -3
-8z m1362 4 c-3 -3 -12 -4 -19 -1 l-13 5 19 1 c11 1 17 -2 13 -5z m-1330 -21
c-4 -3 -10 -3 -14 0 -3 4 0 7 7 7 7 0 10 -3 7 -7z m1308 -4 c-49 -4 -115 -10
-145 -12 l-55 -5 60 13 c33 7 98 13 145 13 l85 -1 -90 -8z m-668 -16 c-4 -3
-7 0 -7 7 0 7 3 10 7 7 3 -4 3 -10 0 -14z m716 0 c12 -11 -25 -43 -49 -43 -26
0 -38 14 -30 35 l5 15 34 0 c19 0 37 -3 40 -7z m-753 -7 c0 -3 -5 -8 -12 -12
l-11 -7 7 11 c7 12 16 16 16 8z m630 -22 c6 -14 10 -27 10 -30 0 -2 -13 -4
-30 -4 -16 0 -30 2 -30 5 0 13 24 55 32 55 5 0 13 -12 18 -26z m-102 -4 l22 0
0 -15 0 -15 -21 0 c-11 0 -33 10 -47 21 l-27 22 25 -6 c14 -4 35 -7 48 -7z
m-123 -10 l20 -8 -25 -6 c-14 -4 -53 -6 -85 -4 l-60 3 55 11 c68 14 70 14 95
4z m-455 -14 c0 -3 -5 -8 -12 -12 l-11 -7 7 11 c7 12 16 16 16 8z m521 -24
c-118 -1 -218 1 -222 5 -5 5 92 6 214 3 l222 -5 -214 -3z m339 -13 l-35 -8 80
3 80 3 -25 -7 -25 -8 18 -1 c9 -1 17 -3 17 -6 0 -7 -30 -56 -48 -77 l-14 -17
-42 21 -43 20 4 23 5 22 -16 16 -16 16 18 4 c9 3 31 5 47 5 l30 -1 -35 -8z
m-445 -6 c-33 -2 -64 -8 -69 -14 l-10 -9 30 0 29 -1 -16 -9 -16 -9 -92 11
c-104 13 -105 28 -2 20 l68 -4 7 11 7 11 62 -2 62 -2 -60 -3z m267 -18 c3 -14
1 -28 -5 -32 l-10 -6 8 13 8 13 -36 -5 c-20 -2 -34 -1 -31 3 2 4 -5 10 -16 14
-33 10 -12 25 34 25 l44 0 4 -25z m67 -36 c-8 -5 -18 -8 -24 -8 -5 0 -4 3 3 6
6 2 12 17 13 31 l0 27 12 -23 11 -24 -15 -9z m278 45 c-3 -3 -12 -4 -19 -1
l-13 5 19 1 c11 1 17 -2 13 -5z m-572 -12 l-20 -5 20 -8 20 -8 -22 0 c-23 -1
-30 9 -16 22 3 4 13 6 22 6 l16 -1 -20 -6z m612 1 c-4 -3 -10 -3 -14 0 -3 4 0
7 7 7 7 0 10 -3 7 -7z m-510 -9 c-3 -3 -12 -4 -19 -1 l-13 5 19 1 c11 1 17 -2
13 -5z m-264 -21 l10 -6 -14 -8 -14 -7 -75 19 -75 19 79 -6 c44 -3 84 -8 89
-11z m-127 -14 c32 -6 63 -14 67 -19 l9 -8 -34 -11 c-18 -7 -51 -14 -73 -17
-22 -3 -46 -7 -53 -9 l-13 -5 6 11 c4 6 -1 19 -11 30 l-17 19 14 0 c8 0 25 -7
37 -16 21 -15 62 -27 62 -19 0 3 -18 14 -40 25 -64 33 -53 37 46 19z m301 4
c-4 -3 -10 -3 -14 0 -3 4 0 7 7 7 7 0 10 -3 7 -7z m251 -20 l12 -17 -15 -9
c-9 -4 -13 -12 -10 -18 8 -12 -12 -12 -36 2 l-20 10 -17 -13 -17 -13 15 19 15
19 -25 -5 c-14 -4 -34 -2 -45 2 l-20 8 45 -3 c25 -1 57 -5 71 -9 l27 -8 6 11
7 11 -13 0 c-29 0 -88 22 -88 32 l0 11 48 -7 47 -6 13 -17z m82 7 c18 -12 2
-12 -25 0 l-20 9 15 0 c8 0 22 -4 30 -9z m-754 -25 c6 -8 13 -13 16 -10 2 3 4
-5 4 -18 l-1 -22 12 2 12 3 -5 -15 c-4 -8 -15 -15 -25 -15 l-19 0 0 28 c0 15
-5 34 -10 42 l-10 15 0 -14 0 -15 -16 20 -15 19 11 -24 12 -24 -13 -8 -14 -9
12 0 c7 0 17 8 23 18 l10 17 -6 -30 c-9 -42 -12 -45 -41 -45 l-25 0 7 18 c4 9
10 28 12 42 3 14 6 30 8 37 l4 12 23 -4 c13 -3 28 -11 34 -20z m331 10 l-19
-14 -16 7 -17 6 30 7 c17 4 32 7 35 7 3 1 -3 -5 -13 -13z m50 -2 c-4 -3 -10
-3 -14 0 -3 4 0 7 7 7 7 0 10 -3 7 -7z m70 0 c-4 -3 -10 -3 -14 0 -3 4 0 7 7
7 7 0 10 -3 7 -7z m53 3 c0 -2 -9 -6 -20 -9 l-20 -5 6 9 c5 9 34 13 34 5z
m280 -7 l-15 -11 23 5 c12 3 20 1 17 -3 -3 -5 3 -11 12 -13 10 -3 -3 -5 -29
-6 -25 0 -54 -4 -64 -8 l-17 -6 20 20 c21 21 39 31 58 32 6 0 3 -4 -5 -10z
m-350 -9 c18 -12 2 -12 -25 0 l-20 9 15 0 c8 0 22 -4 30 -9z m-167 -11 l-11
-11 -19 11 -18 10 30 1 29 0 -11 -11z m247 -21 l15 -9 -25 7 c-14 3 -32 11
-40 16 l-15 9 25 -7 c14 -3 32 -11 40 -16z m17 15 c-4 -3 -10 -3 -14 0 -3 4 0
7 7 7 7 0 10 -3 7 -7z m170 0 c-4 -3 -10 -3 -14 0 -3 4 0 7 7 7 7 0 10 -3 7
-7z m-467 -13 l15 -10 -15 0 c-8 0 -22 5 -30 10 l-15 10 15 0 c8 0 22 -5 30
-10z m-85 -10 c3 -5 4 -10 1 -10 -3 0 -8 5 -11 10 -3 6 -4 10 -1 10 3 0 8 -4
11 -10z m50 -3 l18 -14 -13 -8 c-7 -4 -30 -10 -50 -12 l-37 -5 -6 21 c-3 12
-3 21 0 21 2 0 14 -5 26 -12 28 -15 49 -19 41 -7 -3 5 -10 7 -15 4 l-9 -6 6
15 c7 20 15 20 39 3z m462 -13 c26 -14 53 -30 58 -35 l10 -10 -19 7 -19 7 7
-11 c10 -17 -4 -14 -44 9 -19 11 -26 17 -15 13 53 -17 55 -12 5 15 -30 17 -50
30 -43 31 7 0 34 -11 60 -26z m100 19 c-4 -3 -10 -3 -14 0 -3 4 0 7 7 7 7 0
10 -3 7 -7z m-683 -9 c9 -3 16 -13 16 -21 l0 -14 -17 3 c-10 2 -19 11 -21 21
-4 19 -1 20 22 11z m496 2 c0 -3 -5 -8 -12 -12 l-11 -7 7 11 c7 12 16 16 16 8z
m-205 -16 c3 -5 4 -10 1 -10 -3 0 -8 5 -11 10 -3 6 -4 10 -1 10 3 0 8 -4 11
-10z m225 6 c0 -3 -5 -8 -12 -12 l-11 -7 7 11 c7 12 16 16 16 8z m-335 -16 c3
-5 4 -10 1 -10 -3 0 -8 5 -11 10 -3 6 -4 10 -1 10 3 0 8 -4 11 -10z m59 -84
l39 -33 -7 -37 c-7 -37 -10 -40 -58 -76 l-26 -20 -7 -30 -7 -30 -19 0 c-11 0
-22 7 -25 15 -8 19 -40 20 -47 1 -6 -15 -50 -26 -78 -19 -26 7 -52 51 -51 87
0 17 -6 52 -15 79 -9 26 -13 50 -10 53 3 3 18 -18 34 -47 15 -29 36 -57 45
-63 l17 -10 8 8 c4 4 8 40 9 79 0 40 1 78 2 85 l2 13 23 -3 22 -3 12 -40 c6
-22 14 -52 17 -67 l6 -28 16 0 17 0 -7 49 -6 49 12 5 13 4 -12 22 c-7 11 -13
23 -13 27 0 7 41 -24 94 -70z m-609 56 c6 -4 16 -24 22 -44 l11 -37 -38 31
c-22 16 -41 37 -44 44 l-5 14 22 0 c12 0 27 -4 32 -8z m328 -14 c4 -12 5 -23
4 -24 -1 -1 -10 9 -20 22 l-18 24 14 0 c8 0 17 -10 20 -22z m277 -3 c13 -14
21 -25 18 -25 -2 0 -15 11 -28 25 -13 14 -21 25 -18 25 2 0 15 -11 28 -25z
m55 -13 c-3 -3 -16 5 -28 17 l-22 23 28 -17 c15 -10 25 -20 22 -23z m-457 -10
l12 12 2 -24 c5 -87 4 -218 -3 -235 l-8 -20 0 16 c-1 8 -13 26 -27 38 l-26 23
4 28 4 29 -18 -10 -18 -9 6 29 6 29 -11 6 -10 7 17 37 c20 44 32 54 47 42 l11
-10 12 12z m512 -40 c0 -40 -33 -133 -71 -199 -33 -57 -85 -123 -98 -123 -4 0
-12 20 -18 45 l-10 45 18 0 19 0 0 15 c0 8 5 15 10 15 6 0 15 11 20 25 5 13
23 31 39 40 l30 15 16 52 c8 28 15 62 15 75 l0 23 15 0 15 0 0 -28z m-336 -14
c10 -38 6 -45 -9 -18 -17 29 -18 40 -6 40 5 0 11 -10 15 -22z m-84 -150 c0 -7
11 -26 24 -43 l24 -29 46 -1 c25 0 46 -2 46 -5 0 -3 -4 -10 -8 -16 -7 -12 -36
-17 -83 -15 l-27 1 -5 20 -5 20 -26 0 c-14 0 -26 3 -26 7 0 4 5 22 12 40 12
33 28 45 28 21z m-79 -85 l27 -5 -5 -19 c-3 -10 -11 -19 -17 -19 -7 0 -25 14
-42 32 l-29 31 20 -8 c11 -4 32 -10 46 -12z m278 -40 l1 -23 -25 0 c-14 0 -25
2 -25 4 0 2 7 21 16 42 l17 39 8 -20 c4 -11 8 -30 8 -42z m676 -21 c6 -4 11
-13 13 -20 l2 -13 -10 6 c-5 3 -22 13 -38 21 l-27 14 25 0 c14 0 30 -4 35 -8z
m-65 -6 c0 -16 -14 -36 -26 -36 -8 0 -14 2 -14 4 0 2 -3 11 -6 20 l-6 16 26 0
c14 0 26 -2 26 -4z" />
    <path d="M722 1891 c-6 -17 -7 -31 -3 -31 8 0 22 52 16 58 -1 2 -7 -11 -13
-27z" />
    <path d="M1404 1985 c-3 -14 -2 -44 4 -67 6 -23 10 -43 9 -44 -1 -1 -30 -14
-63 -30 l-62 -29 6 15 c3 8 14 25 25 37 l20 22 -6 15 c-4 9 -16 16 -27 16
l-21 0 -10 28 -9 28 -35 -1 -35 -2 -14 -19 -15 -19 30 -6 c17 -4 32 -9 34 -11
3 -2 6 -15 9 -29 2 -13 9 -23 15 -21 6 1 11 0 11 -3 0 -8 -23 -48 -39 -67
l-14 -18 14 0 c8 0 20 5 27 12 l12 12 0 -10 c0 -5 -5 -15 -12 -22 l-12 -12 16
0 c9 0 20 5 23 10 3 6 23 10 44 10 l38 0 27 25 c14 13 26 22 26 20 0 -8 76 18
82 29 13 19 9 47 -11 75 -10 14 -21 37 -22 51 l-4 25 -27 3 -27 3 -7 -26z" />
    <path d="M1133 1872 l2 -50 13 11 13 10 -3 35 c-2 20 -8 37 -15 39 l-12 4 2
-49z" />
    <path d="M1168 1867 l4 -52 -21 -19 c-12 -11 -21 -24 -21 -29 0 -6 -10 -21
-22 -34 -12 -13 -17 -23 -10 -23 6 0 19 11 30 25 11 14 24 25 30 25 6 0 20 20
32 45 l22 46 -16 34 c-10 19 -20 35 -24 35 -4 0 -6 -24 -4 -53z" />
    <path d="M2415 1315 c15 -42 35 -109 35 -117 0 -5 -20 3 -45 18 -25 14 -45 24
-45 22 0 -2 13 -47 30 -98 16 -52 30 -99 30 -103 0 -5 -10 -7 -22 -5 l-23 3
-3 -20 -4 -20 13 13 c7 6 23 12 35 12 l22 0 -29 90 c-16 50 -29 95 -29 101 l0
11 34 -22 34 -21 7 11 c7 12 -19 107 -36 130 l-11 15 7 -20z" />
    <path d="M503 1233 l-53 -4 0 -20 c0 -21 27 -79 36 -79 4 0 3 16 0 35 l-7 35
43 0 c24 0 60 3 81 6 l37 7 0 13 0 14 -42 -2 c-24 -1 -67 -3 -95 -5z" />
    <path d="M1298 1223 c7 -3 16 -2 19 1 4 3 -2 6 -13 5 l-19 -1 13 -5z" />
    <path d="M209 1205 c-15 -8 -29 -21 -33 -30 l-5 -15 30 22 31 23 68 -2 69 -2
6 9 6 10 -73 0 -73 -1 -26 -14z" />
    <path d="M1326 244 c4 -16 13 -41 20 -56 8 -15 14 -42 14 -60 l-1 -33 -26 50
-26 50 -11 -18 c-6 -10 -16 -26 -23 -35 l-12 -17 -1 43 0 44 -12 -4 c-6 -2
-17 -20 -24 -39 l-12 -34 -3 50 -4 50 -27 -50 -27 -50 -1 23 0 24 -12 -4 c-6
-2 -14 -10 -16 -18 l-5 -13 12 7 12 8 -7 -29 c-4 -15 -11 -39 -16 -52 -5 -13
-6 -26 -4 -28 3 -3 23 30 45 73 l40 79 1 -27 c0 -14 3 -34 7 -43 l6 -18 18 34
18 34 1 -39 0 -39 20 18 c11 10 22 27 26 38 l7 21 23 -49 c13 -27 24 -56 25
-64 l0 -16 9 20 c14 32 11 84 -6 116 -8 17 -13 37 -10 44 3 8 -2 19 -10 26
l-15 12 7 -29z m-179 -121 c-4 -3 -7 0 -7 7 0 7 3 10 7 7 3 -4 3 -10 0 -14z" />
  </g>
  <g transform="translate(0.000000,259.000000) scale(0.100000,-0.100000)" fill="#c87020" stroke="none">
    <path d="M1704 2381 c4 -6 12 -11 17 -11 6 0 47 -16 90 -35 l80 -35 47 1 47 1
-50 22 c-27 13 -84 31 -125 40 -41 10 -83 20 -94 23 l-19 5 7 -11z" />
    <path d="M1345 2370 l-16 -6 47 -22 46 -23 14 12 14 12 -10 12 c-12 15 -70 24
-95 15z" />
    <path d="M1565 2361 c-17 -4 -38 -12 -47 -17 l-16 -9 86 -1 87 0 76 -42 c75
-42 109 -51 109 -32 0 17 -63 50 -96 50 -17 0 -37 6 -43 14 -12 15 -95 47
-115 45 -6 -1 -25 -4 -41 -8z" />
    <path d="M1196 2322 c-3 -5 5 -14 17 -19 33 -16 108 -35 114 -29 6 6 -95 56
-113 56 -7 0 -15 -4 -18 -8z" />
    <path d="M1063 2313 c4 -3 10 -3 14 0 3 4 0 7 -7 7 -7 0 -10 -3 -7 -7z" />
    <path d="M1520 2310 l-14 -9 14 -5 c8 -2 29 -7 45 -9 17 -3 48 -12 70 -20 22
-8 67 -18 99 -22 l59 -8 -7 12 c-4 6 -16 11 -26 11 -10 0 -20 5 -22 10 -2 6
-28 13 -58 17 -30 3 -67 12 -82 19 -31 16 -57 18 -78 4z" />
    <path d="M970 2250 l-105 -39 -15 -23 c-8 -13 -24 -32 -36 -43 -11 -11 -26
-36 -34 -55 -7 -19 -22 -43 -32 -53 -10 -10 -18 -22 -18 -27 0 -4 -3 -15 -6
-24 l-6 -16 12 0 c6 0 35 20 64 45 77 66 222 126 339 140 26 4 47 10 47 14 0
11 -59 20 -65 11 -3 -4 -31 -11 -62 -15 -55 -7 -101 -26 -188 -80 -22 -14 -53
-32 -70 -41 l-30 -15 47 43 c26 24 59 53 75 65 15 11 25 24 22 27 -4 4 -25 -9
-49 -29 -47 -39 -63 -46 -34 -14 58 64 216 149 277 149 l28 0 -6 10 c-10 17
-46 10 -155 -30z" />
    <path d="M1879 2253 l-14 -18 18 14 c9 7 17 15 17 17 0 8 -8 3 -21 -13z" />
    <path d="M1116 2242 c-7 -12 31 -30 82 -37 l42 -7 -6 15 c-3 8 -25 20 -49 26
-53 13 -62 14 -69 3z" />
    <path d="M1040 2231 c-30 -10 -110 -50 -110 -56 0 -2 30 9 68 24 37 15 74 30
82 34 l15 5 -15 0 c-8 0 -26 -3 -40 -7z" />
    <path d="M1478 2215 c30 -14 67 -25 84 -25 16 0 39 -5 51 -11 30 -16 87 -70
87 -84 0 -6 11 -22 24 -34 14 -13 29 -35 35 -50 6 -14 25 -35 41 -46 16 -11
27 -22 24 -24 -3 -3 14 -15 38 -28 l43 -22 -19 -1 -19 0 18 -20 18 -20 31 0
31 0 -12 -8 c-6 -4 -13 -16 -15 -26 l-3 -19 33 -9 c32 -8 45 -28 19 -28 -8 0
-22 -9 -32 -20 l-17 -19 26 -32 27 -32 -6 -15 c-7 -19 12 -42 36 -42 l19 0 -6
-25 -6 -25 28 0 c16 0 39 -3 51 -6 l23 -6 -14 38 c-7 22 -16 52 -20 68 l-7 29
15 -12 c19 -16 20 -8 5 20 l-11 21 22 -12 22 -12 -11 21 c-6 11 -15 31 -21 46
l-10 26 19 -11 19 -10 -23 48 c-13 26 -31 54 -40 62 -9 7 -21 22 -27 33 l-10
20 28 -7 28 -7 -18 20 c-10 11 -30 24 -46 29 l-27 10 -14 -9 c-8 -5 -21 -9
-30 -9 l-17 0 -6 23 c-7 29 -41 46 -82 40 l-31 -5 -22 24 -22 23 5 25 c2 14 8
33 11 42 l7 18 -18 6 c-11 4 -53 23 -94 44 l-75 38 -66 11 c-36 6 -79 11 -95
11 l-29 0 53 -25z" />
    <path d="M1843 2223 c-7 -2 -15 -19 -18 -36 l-6 -32 16 -45 c15 -43 69 -110
88 -110 5 0 -5 11 -21 25 l-29 24 -17 60 -16 59 10 27 c6 15 9 29 8 30 -2 1
-8 0 -15 -2z" />
    <path d="M1490 2118 c19 -52 26 -98 14 -98 -3 0 -15 12 -27 26 -25 32 -91 63
-134 64 -18 0 -36 6 -40 13 -4 8 -18 16 -31 20 l-23 5 3 -21 3 -21 66 -33 c37
-17 70 -36 74 -42 l6 -11 -64 0 c-35 0 -67 -3 -71 -7 -4 -5 12 -13 36 -18 l43
-11 23 -34 c13 -19 26 -47 29 -62 3 -16 9 -28 14 -28 5 0 9 -7 9 -15 0 -8 6
-33 12 -55 l13 -40 22 0 c12 0 38 14 58 31 l35 31 0 -47 c0 -48 28 -145 42
-145 5 0 8 5 8 10 0 6 11 10 25 10 14 0 25 2 25 5 0 3 -6 14 -12 25 l-13 20
37 37 c19 21 40 52 45 68 l10 30 27 3 c16 2 34 -2 40 -8 l11 -11 -25 -22 c-14
-13 -34 -43 -46 -67 l-20 -45 9 -42 10 -43 51 -1 51 -1 -42 -10 c-24 -5 -43
-12 -43 -16 0 -14 68 -44 91 -40 l24 3 3 43 3 44 -15 46 c-9 25 -16 66 -16 92
l0 46 -50 71 c-27 39 -50 76 -50 82 0 6 -18 31 -41 56 -22 24 -38 48 -35 53 3
5 -9 22 -26 38 -18 16 -27 22 -20 13 7 -9 11 -27 10 -40 l-2 -25 47 -86 c26
-47 47 -91 47 -97 0 -6 -25 -18 -55 -27 l-56 -16 -40 7 -40 7 6 41 c4 23 11
46 16 52 5 5 9 16 9 24 0 8 7 23 17 33 l16 18 -11 25 c-6 14 -18 25 -27 25
l-15 0 -6 28 c-12 54 -15 60 -39 76 l-25 17 20 -53z m-31 -148 c1 -14 12 -37
23 -52 l19 -28 -6 -20 c-3 -11 -10 -20 -15 -20 -5 0 -14 -2 -22 -5 l-13 -5
-18 60 -18 60 6 21 7 20 16 -3 17 -3 4 -25z" />
    <path d="M1070 2043 c-47 -31 -100 -92 -94 -107 3 -7 20 -19 39 -28 l35 -15
12 15 c20 24 116 92 129 92 l13 0 -22 20 c-12 11 -27 20 -33 20 -7 0 -20 6
-28 14 l-16 13 -35 -24z" />
    <path d="M925 2037 l-79 -9 -26 -20 -25 -21 28 5 c15 3 27 2 27 -2 0 -3 -11
-17 -25 -30 l-25 -23 0 -30 c0 -17 -3 -27 -7 -24 -10 10 -36 -63 -37 -103 0
-19 3 -46 8 -58 l8 -24 -25 16 -24 17 -7 -41 -6 -40 -18 0 c-19 0 -55 35 -65
63 l-6 17 -26 0 -25 0 0 -36 0 -36 29 5 28 6 32 -23 31 -23 -15 -13 c-8 -7
-15 -8 -15 -3 0 9 -98 48 -104 42 -2 -2 -6 -22 -8 -44 l-3 -40 40 -5 40 -5
-32 -12 c-17 -6 -34 -9 -37 -7 -3 2 -4 1 -1 -2 6 -9 -15 -47 -22 -40 -3 3 -12
-2 -20 -10 -8 -8 -18 -12 -22 -9 -4 2 -17 -13 -29 -33 -11 -21 -30 -48 -41
-61 -12 -13 -21 -32 -21 -42 0 -10 -5 -21 -10 -24 -6 -4 -7 -11 -4 -17 l7 -10
7 12 8 13 17 -27 c10 -14 24 -26 31 -26 l14 0 0 28 0 27 13 -25 12 -25 45 -3
45 -3 45 21 c25 12 60 32 79 46 19 13 42 24 52 24 10 0 35 -16 55 -36 l36 -37
78 42 c42 22 86 41 96 41 l19 0 49 73 49 74 39 16 c21 9 53 17 71 16 l32 -1
-40 -10 c-22 -6 -48 -17 -59 -24 l-18 -12 28 -15 29 -15 44 38 45 39 -30 6
c-16 4 -51 13 -77 21 l-49 13 -21 -13 c-12 -8 -34 -16 -49 -20 -16 -4 -28 -11
-28 -17 0 -6 9 -24 21 -40 l20 -29 -35 0 c-20 0 -36 5 -36 10 0 6 5 10 10 10
20 0 8 25 -22 50 -17 13 -50 27 -72 31 l-41 6 68 2 67 1 0 -16 0 -16 13 4 12
5 3 109 c2 60 0 124 -3 142 l-6 33 -10 -6 -9 -6 0 23 c0 29 -17 48 -44 48 -11
0 -27 7 -37 16 l-18 16 -16 -31 c-8 -17 -12 -31 -8 -32 5 -1 17 -2 27 -3 l20
-1 20 -35 19 -35 -36 34 -37 35 5 -70 5 -69 -9 20 c-5 11 -10 36 -10 56 -1 20
-4 39 -8 43 -4 4 -13 -8 -19 -26 l-12 -33 -2 30 c-1 17 -3 38 -5 48 -2 9 0 17
4 17 5 0 25 27 45 60 35 57 72 94 86 85 3 -2 11 4 17 14 l11 17 -17 0 c-9 0
-52 -4 -96 -9z m-5 -102 c0 -2 -23 -16 -50 -30 l-51 -26 13 21 c7 11 24 24 38
29 28 11 50 13 50 6z m-70 -93 c0 -5 -14 -21 -31 -38 l-31 -29 22 38 c20 34
40 49 40 29z m-4 -59 l-26 -48 7 30 c7 32 33 78 40 71 2 -2 -7 -26 -21 -53z" />
    <path d="M2091 1981 l-24 -6 42 -19 42 -19 29 -44 29 -43 -27 6 -27 7 28 -30
28 -30 -14 -34 c-7 -19 -12 -41 -9 -49 l5 -15 -22 19 c-11 11 -21 17 -21 14 0
-3 11 -25 24 -49 13 -24 27 -55 31 -69 l7 -25 -31 29 -31 30 0 -20 c0 -29 69
-115 125 -154 27 -19 65 -51 85 -70 58 -56 70 -48 50 35 -5 22 -7 41 -5 44 3
2 11 -2 20 -9 l15 -12 0 18 c0 11 -7 43 -15 73 -8 30 -12 58 -9 63 3 5 -13 42
-35 83 l-41 74 17 -6 17 -7 -24 40 c-45 73 -84 115 -141 150 -57 34 -73 38
-118 25z" />
    <path d="M694 1948 l-7 -11 11 7 c12 7 16 16 8 16 -3 0 -8 -5 -12 -12z" />
    <path d="M755 1950 c-3 -5 -1 -10 4 -10 6 0 11 5 11 10 0 6 -2 10 -4 10 -3 0
-8 -4 -11 -10z" />
    <path d="M592 1806 c-17 -37 -15 -45 4 -18 8 12 14 27 12 33 -2 6 -9 -1 -16
-15z" />
    <path d="M1420 1684 l0 -22 -35 -21 c-19 -11 -35 -27 -35 -34 0 -20 32 -27 57
-13 29 16 86 84 79 95 -3 5 -19 11 -36 13 l-30 5 0 -23z" />
    <path d="M1510 1650 c0 -16 5 -30 10 -30 6 0 10 7 10 15 0 8 8 15 18 15 l17 1
-19 14 c-11 8 -23 15 -28 15 -4 0 -8 -13 -8 -30z" />
    <path d="M1517 1603 c-4 -3 -7 -16 -7 -28 0 -12 -9 -30 -21 -41 l-21 -19 -79
-1 -79 -1 -26 -24 -25 -23 18 -7 c10 -4 30 -8 45 -8 14 -1 28 -6 30 -13 l4
-12 102 50 101 49 1 27 c0 14 -3 33 -6 42 -6 16 -26 21 -37 9z" />
    <path d="M1320 1570 c0 -13 20 -13 40 0 l15 10 -27 0 c-16 0 -28 -4 -28 -10z" />
    <path d="M1485 1467 l-40 -21 23 -4 c24 -4 72 22 72 38 0 14 -10 12 -55 -13z" />
    <path d="M1133 1457 c-12 -12 -28 -37 -38 -56 l-17 -35 41 33 42 33 -12 14
-12 14 17 -6 16 -6 0 10 c0 21 -18 21 -37 -1z" />
    <path d="M1132 1385 l-37 -34 15 0 c14 0 79 69 66 69 -4 0 -23 -16 -44 -35z" />
    <path d="M1186 1385 l-5 -15 14 0 c16 0 20 16 6 24 -5 3 -11 -1 -15 -9z" />
    <path d="M1185 1349 c-12 -19 3 -22 27 -5 l22 16 -21 0 c-12 0 -25 -5 -28 -11z" />
    <path d="M1215 1330 c-3 -5 1 -10 9 -10 8 0 18 5 21 10 3 6 -1 10 -9 10 -8 0
-18 -4 -21 -10z" />
    <path d="M390 1258 c0 -25 12 -58 19 -53 10 6 1 65 -10 65 -5 0 -9 -6 -9 -12z" />
  </g>
  <g transform="translate(0.000000,259.000000) scale(0.100000,-0.100000)" fill="#c7cbc7" stroke="none">
    <path d="M2223 2290 c0 -25 2 -35 4 -22 2 12 2 32 0 45 -2 12 -4 2 -4 -23z" />
    <path d="M2079 2098 c4 -12 14 -24 20 -26 l13 -4 -17 26 c-10 14 -19 26 -21
26 -2 0 0 -10 5 -22z" />
    <path d="M660 1812 c0 -5 10 -17 22 -28 l21 -19 -18 28 c-18 28 -25 33 -25 19z" />
    <path d="M1353 1713 c4 -3 10 -3 14 0 3 4 0 7 -7 7 -7 0 -10 -3 -7 -7z" />
    <path d="M1260 1700 l-15 -10 30 1 c17 0 39 4 50 9 l20 9 -35 0 c-19 0 -42 -4
-50 -9z" />
    <path d="M1139 1658 l-23 -33 20 18 c12 9 23 15 25 12 3 -2 5 5 5 15 0 11 -1
20 -2 20 -2 0 -13 -15 -25 -32z" />
    <path d="M1150 1320 c0 -5 4 -10 9 -10 6 0 13 5 16 10 l6 10 -15 0 c-9 0 -16
-4 -16 -10z" />
    <path d="M1184 1308 l-7 -11 11 7 c7 4 12 9 12 12 0 8 -9 4 -16 -8z" />
    <path d="M1219 1299 l-14 -9 18 0 c10 0 16 -4 13 -9 -6 -8 15 -21 35 -21 19 0
8 27 -14 37 l-24 11 -14 -9z" />
    <path d="M1113 1293 c4 -3 10 -3 14 0 3 4 0 7 -7 7 -7 0 -10 -3 -7 -7z" />
    <path d="M1290 1276 c0 -9 6 -16 14 -16 8 0 18 -9 21 -20 7 -21 22 -25 43 -12
l12 8 -19 18 c-11 10 -25 18 -33 20 -7 1 -19 5 -25 9 l-13 8 0 -15z m55 -26
c10 -11 16 -20 13 -20 -3 0 -13 9 -23 20 -10 11 -16 20 -13 20 3 0 13 -9 23
-20z" />
    <path d="M1043 1273 c4 -3 10 -3 14 0 3 4 0 7 -7 7 -7 0 -10 -3 -7 -7z" />
    <path d="M1093 1263 c4 -3 10 -3 14 0 3 4 0 7 -7 7 -7 0 -10 -3 -7 -7z" />
    <path d="M915 1235 c-16 -13 -26 -24 -21 -25 5 0 3 -7 -4 -15 -24 -29 6 -14
49 25 l44 40 -19 0 c-11 0 -32 -11 -49 -25z" />
    <path d="M1035 1250 c-3 -5 -1 -10 4 -10 6 0 11 5 11 10 0 6 -2 10 -4 10 -3 0
-8 -4 -11 -10z" />
    <path d="M2334 1241 c20 -22 36 -27 36 -13 0 5 -12 14 -27 21 l-28 13 19 -21z" />
    <path d="M965 1200 c-10 -11 -14 -20 -8 -20 5 0 18 9 28 20 10 11 14 20 8 20
-5 0 -18 -9 -28 -20z" />
    <path d="M1253 1203 c4 -3 10 -3 14 0 3 4 0 7 -7 7 -7 0 -10 -3 -7 -7z" />
    <path d="M1363 1203 c-18 -6 -4 -33 18 -33 10 0 19 4 19 9 0 13 -24 29 -37 24z" />
    <path d="M1400 1205 c0 -2 15 -12 33 -20 l32 -16 -24 21 c-22 19 -41 26 -41
15z" />
    <path d="M857 1166 l-6 -15 14 6 c8 3 12 9 9 14 -7 12 -11 11 -17 -5z" />
    <path d="M1168 1163 c6 -2 18 -2 25 0 6 3 1 5 -13 5 -14 0 -19 -2 -12 -5z" />
    <path d="M1472 1128 c3 -7 13 -15 22 -16 l18 -4 -4 14 c-3 7 -13 15 -22 16
l-18 4 4 -14z" />
    <path d="M2200 1133 c0 -5 26 -24 58 -42 31 -19 72 -48 90 -64 l32 -31 0 17
c0 9 -19 31 -42 48 -52 38 -138 82 -138 72z" />
    <path d="M1075 1120 c3 -5 12 -7 20 -3 21 7 19 13 -6 13 l-20 0 6 -10z" />
    <path d="M1019 1101 c12 -8 51 -4 51 5 0 2 -15 4 -32 4 l-33 0 14 -9z" />
    <path d="M1323 1103 c4 -3 10 -3 14 0 3 4 0 7 -7 7 -7 0 -10 -3 -7 -7z" />
    <path d="M1283 1093 c4 -3 10 -3 14 0 3 4 0 7 -7 7 -7 0 -10 -3 -7 -7z" />
    <path d="M1395 1090 c28 -12 45 -12 45 0 0 6 -15 10 -32 9 l-33 0 20 -9z" />
    <path d="M934 1078 l-7 -11 11 7 c7 4 12 9 12 12 0 8 -9 4 -16 -8z" />
    <path d="M965 1080 c3 -5 10 -10 16 -10 5 0 9 5 9 10 0 6 -7 10 -16 10 l-15 0
6 -10z" />
    <path d="M1318 1083 c7 -3 16 -2 19 1 4 3 -2 6 -13 5 l-19 -1 13 -5z" />
    <path d="M1480 1081 c0 -5 7 -12 16 -15 22 -9 24 -8 24 9 l0 15 -20 0 c-11 0
-20 -4 -20 -9z" />
    <path d="M1200 1070 c-18 -12 -2 -12 25 0 l20 9 -15 0 c-8 0 -22 -4 -30 -9z" />
    <path d="M1418 1063 c7 -3 16 -2 19 1 4 3 -2 6 -13 5 l-19 -1 13 -5z" />
    <path d="M1225 1050 c3 -5 8 -10 11 -10 3 0 2 5 -1 10 -3 6 -8 10 -11 10 -3 0
-2 -4 1 -10z" />
    <path d="M1503 1043 c4 -3 10 -3 14 0 3 4 0 7 -7 7 -7 0 -10 -3 -7 -7z" />
    <path d="M1165 1030 c-3 -5 -1 -10 4 -10 6 0 11 5 11 10 0 6 -2 10 -4 10 -3 0
-8 -4 -11 -10z" />
    <path d="M1113 1013 c4 -3 10 -3 14 0 3 4 0 7 -7 7 -7 0 -10 -3 -7 -7z" />
    <path d="M1458 961 l17 -30 8 21 c4 11 6 22 5 23 -2 1 -13 6 -25 9 l-23 7 18
-30z" />
    <path d="M2375 872 c21 -23 40 -42 42 -42 2 0 3 4 3 9 0 5 -19 24 -42 42 l-43
33 40 -42z" />
    <path d="M805 820 l-6 -10 15 6 c18 7 21 14 7 14 -6 0 -13 -4 -16 -10z" />
    <path d="M854 808 l-7 -11 11 7 c12 7 16 16 8 16 -3 0 -8 -5 -12 -12z" />
    <path d="M774 798 l-7 -11 11 7 c12 7 16 16 8 16 -3 0 -8 -5 -12 -12z" />
    <path d="M864 784 l-19 -15 23 11 c12 6 22 13 22 15 0 8 -5 6 -26 -11z" />
    <path d="M2200 797 c0 -4 26 -36 58 -70 31 -34 67 -75 79 -92 l22 -30 1 20 0
20 -80 80 c-44 44 -80 76 -80 72z" />
    <path d="M744 778 l-7 -11 11 7 c12 7 16 16 8 16 -3 0 -8 -5 -12 -12z" />
    <path d="M1902 760 c7 -11 18 -20 25 -20 19 0 16 6 -12 24 l-26 17 13 -21z" />
    <path d="M824 758 l-7 -11 11 7 c12 7 16 16 8 16 -3 0 -8 -5 -12 -12z" />
    <path d="M722 730 c-26 -25 -30 -40 -4 -18 9 8 26 20 37 26 l20 11 -16 1 c-8
0 -25 -9 -37 -20z" />
    <path d="M794 738 l-7 -11 11 7 c12 7 16 16 8 16 -3 0 -8 -5 -12 -12z" />
    <path d="M838 679 c-21 -11 -38 -21 -38 -23 0 -7 40 6 46 15 3 5 14 9 25 9 10
0 19 5 19 10 0 14 -9 12 -52 -11z" />
    <path d="M1375 619 l-29 -61 -44 -40 -44 -40 -102 3 c-55 2 -131 2 -168 1
l-66 -2 5 -20 6 -21 18 17 19 17 0 -22 0 -22 20 11 c11 6 25 8 30 5 6 -3 10
-27 11 -53 l1 -47 21 63 21 63 16 -7 c8 -3 26 -8 40 -10 14 -3 36 -12 50 -21
l25 -16 -12 14 c-18 18 -16 39 2 39 8 0 24 -14 34 -31 l19 -31 7 31 c7 34 25
40 45 16 l12 -15 34 0 33 0 11 38 c12 38 26 202 18 202 -2 0 -17 -27 -33 -61z" />
    <path d="M1775 645 c10 -16 24 -38 30 -48 l13 -18 7 11 8 12 -38 37 -38 36 18
-30z" />
    <path d="M734 621 c-18 -11 -35 -25 -40 -32 -7 -12 58 23 81 43 l9 8 -9 0 c-6
0 -24 -9 -41 -19z" />
    <path d="M2011 610 c14 -31 19 -36 19 -24 0 6 -7 19 -16 30 l-15 19 12 -25z" />
    <path d="M1571 588 c-12 -13 -35 -48 -52 -78 -16 -30 -23 -46 -15 -35 35 45
71 75 90 76 12 0 40 0 64 -1 23 -1 42 1 42 4 0 10 -75 56 -91 56 -9 0 -27 -10
-38 -22z" />
    <path d="M2054 581 l-22 -16 36 -70 36 -70 9 37 9 37 -18 46 c-9 25 -20 47
-23 49 -3 2 -16 -4 -27 -13z" />
    <path d="M1844 552 l-12 -7 24 -45 23 -45 1 43 0 43 -9 -6 c-5 -3 -11 1 -13
10 l-3 14 -11 -7z" />
    <path d="M2258 535 c6 -11 17 -29 26 -40 l15 -20 1 16 c0 8 -12 26 -26 40
l-27 24 11 -20z" />
    <path d="M880 520 l-15 -10 70 1 70 0 -20 9 c-27 12 -87 12 -105 0z" />
    <path d="M841 464 l-11 -26 32 23 c18 12 35 24 37 26 2 2 -7 3 -21 3 l-25 0
-12 -26z" />
    <path d="M742 419 l-13 -20 7 -22 8 -22 7 40 c4 22 6 41 5 42 -1 1 -7 -7 -14
-18z" />
    <path d="M2241 416 l13 -28 4 12 c3 7 -3 19 -13 28 l-16 17 12 -29z" />
    <path d="M933 417 c-21 -9 -33 -37 -15 -37 14 1 44 29 41 38 l-4 9 -22 -10z" />
    <path d="M860 398 c-29 -44 -32 -53 -6 -23 22 26 32 45 23 45 -1 0 -9 -10 -17
-22z" />
    <path d="M775 389 c-4 -6 -5 -12 -2 -15 2 -3 7 2 10 11 7 17 1 20 -8 4z" />
    <path d="M1180 382 c0 -17 29 -46 37 -38 4 4 -3 16 -15 29 l-22 21 0 -12z" />
    <path d="M960 338 c-7 -18 -19 -47 -26 -65 -8 -17 -14 -39 -13 -50 l1 -18 4
15 c3 8 13 33 23 55 19 41 34 95 27 95 -2 0 -9 -15 -16 -32z" />
    <path d="M1150 338 c0 -8 7 -21 15 -28 19 -16 19 -1 0 24 l-15 20 0 -16z" />
    <path d="M791 326 l-12 -14 9 -6 c6 -3 13 1 16 10 9 23 2 28 -13 10z" />
    <path d="M867 323 c-4 -3 -7 -11 -7 -17 l0 -10 12 12 c6 6 9 14 7 17 -3 3 -9
2 -12 -2z" />
    <path d="M813 255 l-21 -54 19 12 18 11 6 39 c4 21 5 40 3 42 -2 2 -13 -20
-25 -50z" />
    <path d="M1048 270 c-3 -16 -1 -35 4 -42 l8 -13 0 43 c0 23 -2 42 -4 42 -2 0
-6 -13 -8 -30z" />
    <path d="M977 280 c-3 -8 -8 -40 -11 -70 l-5 -55 10 35 11 35 20 -25 21 -25
-6 20 c-3 11 -12 38 -21 60 l-14 40 -5 -15z" />
    <path d="M854 245 c-12 -39 -1 -57 15 -26 13 23 15 61 3 61 -4 0 -12 -16 -18
-35z" />
    <path d="M1131 227 c-1 -27 -6 -58 -12 -70 l-10 -22 14 18 15 18 5 -13 c3 -7
5 7 6 32 0 25 -4 54 -9 65 l-9 20 0 -48z" />
    <path d="M1241 233 c-1 -12 -3 -27 -4 -35 -2 -7 -2 -9 1 -4 2 4 8 2 13 -5 l9
-14 -1 20 c0 11 -4 29 -9 40 l-9 20 0 -22z" />
    <path d="M1069 196 l-27 -43 29 11 29 10 0 33 c0 18 -1 33 -2 33 -2 0 -15 -20
-29 -44z" />
    <path d="M910 160 c0 -7 3 -10 7 -7 3 4 3 10 0 14 -4 3 -7 0 -7 -7z" />
  </g>
  <g transform="translate(0.000000,259.000000) scale(0.100000,-0.100000)" fill="#f87078" stroke="none">
    <path d="M1217 883 l-49 -4 7 -42 6 -42 -10 15 c-6 8 -11 25 -11 36 l0 22 -25
6 c-36 9 -72 -3 -78 -25 l-5 -19 9 6 c11 6 11 -33 0 -60 l-7 -19 -23 28 c-12
16 -19 35 -16 42 2 8 1 12 -4 8 -5 -3 -11 0 -13 6 l-4 12 -19 -7 -20 -6 0 -29
c0 -16 3 -27 6 -25 4 2 10 -3 13 -12 8 -21 8 -36 -1 -31 -5 3 -8 -5 -8 -18 0
-13 4 -21 9 -17 l9 5 -5 -21 -6 -22 10 -7 11 -6 -8 13 -8 13 12 -7 c6 -4 10
-15 9 -24 l-3 -17 24 3 c13 2 21 0 18 -5 -3 -4 8 -8 23 -8 15 0 26 3 23 8 -2
4 6 8 19 8 13 1 30 2 38 3 8 0 30 -2 48 -5 l32 -7 11 20 11 20 -11 -6 -11 -7
7 18 c10 30 36 54 50 48 l14 -5 -7 12 -7 11 16 -6 16 -6 -6 16 -6 16 10 -6 11
-7 -6 22 -5 21 10 -6 10 -6 -5 26 -5 26 13 -8 13 -8 -10 18 c-6 10 -8 26 -6
36 l5 19 -11 0 -10 0 6 -17 7 -17 -24 17 c-14 9 -27 16 -30 15 -3 -1 -27 -3
-53 -5z m-67 -223 c0 -5 -4 -10 -10 -10 -5 0 -10 5 -10 10 0 6 5 10 10 10 6 0
10 -4 10 -10z" />
    <path d="M1036 788 c3 -5 10 -6 15 -3 13 9 11 12 -6 12 -8 0 -12 -4 -9 -9z" />
    <path d="M1249 703 l-14 -18 18 14 c9 7 17 15 17 17 0 8 -8 3 -21 -13z" />
  </g>
  <g transform="translate(0.000000,259.000000) scale(0.100000,-0.100000)" fill="#e06488" stroke="none">
    <path d="M1326 796 l-16 -54 -35 -21 c-19 -11 -35 -25 -35 -31 0 -17 -42 -70
-56 -70 -6 0 -15 -7 -18 -16 l-6 -15 12 7 11 7 -5 -26 -5 -26 8 5 c5 3 9 -2 9
-11 l0 -17 -16 6 -15 6 6 -10 c3 -6 19 -10 35 -10 l28 0 29 34 c58 65 133 222
133 278 l0 18 -24 0 -25 0 -15 -54z" />
    <path d="M946 754 c-4 -22 -16 -59 -27 -83 -11 -25 -16 -48 -12 -52 5 -4 19
-9 32 -11 14 -1 26 -10 28 -18 l5 -15 -11 15 c-6 8 -11 11 -11 5 0 -21 16 -33
40 -31 14 1 35 -1 48 -6 l23 -8 -6 10 -6 10 16 0 16 0 -7 -12 -8 -13 16 12 c8
7 18 9 23 5 4 -4 3 3 -3 14 l-11 21 -28 6 c-16 3 -40 16 -54 30 -30 27 -53 86
-43 110 3 9 1 23 -4 33 l-9 17 -7 -39z" />
    <path d="M895 541 l-30 -7 18 -7 c10 -4 35 -6 55 -6 l37 2 -28 4 c-15 2 -25 9
-22 14 4 5 5 8 3 8 -2 -1 -16 -4 -33 -8z" />
  </g>
  <g transform="translate(0.000000,259.000000) scale(0.100000,-0.100000)" fill="#982302" stroke="none">
    <path d="M720 1693 c0 -12 -7 -28 -15 -36 -8 -8 -11 -17 -8 -20 3 -3 -17 -28
-45 -54 l-51 -49 9 -14 10 -15 0 11 c0 15 41 59 69 74 l23 12 -6 13 c-2 7 2
19 10 26 8 6 12 14 9 17 -3 3 0 11 7 19 l11 14 -11 11 -12 12 0 -21z" />
    <path d="M1050 1590 c-8 -5 -42 -10 -75 -10 -65 0 -174 -24 -190 -42 l-10 -11
35 7 c19 4 62 9 95 13 l60 5 40 -32 40 -33 -38 7 -39 7 6 -9 c6 -10 -25 -22
-61 -22 -12 0 -25 -5 -29 -11 l-6 -11 58 6 59 6 -32 -13 c-17 -6 -35 -16 -40
-21 l-8 -9 17 6 c9 3 33 9 52 13 20 3 36 10 36 14 0 14 28 19 59 10 16 -4 32
-6 35 -3 2 3 -11 27 -31 54 -19 28 -33 53 -29 56 3 4 6 0 6 -8 l0 -14 10 15
c12 18 13 40 3 40 -5 0 -15 -5 -23 -10z m-33 -117 c-4 -3 -10 -3 -14 0 -3 4 0
7 7 7 7 0 10 -3 7 -7z" />
    <path d="M563 1511 c-13 -11 -38 -48 -56 -83 l-34 -63 -13 -67 c-6 -37 -10
-72 -8 -78 l3 -11 19 14 20 14 -2 63 -2 63 32 61 c17 33 41 71 52 84 24 27 19
28 -11 3z" />
    <path d="M794 1484 c-21 -15 -42 -31 -46 -37 -11 -19 1 -21 19 -5 10 9 32 23
50 32 l32 16 56 0 56 0 -6 10 c-3 6 -32 10 -64 10 l-58 0 -39 -26z" />
    <path d="M471 1459 c-7 -12 -10 -23 -8 -26 3 -3 11 5 17 17 15 28 8 35 -9 9z" />
    <path d="M827 1432 c-10 -10 -17 -22 -17 -26 0 -9 49 27 50 37 0 13 -17 7 -33
-11z" />
    <path d="M717 1413 c-4 -3 -7 -11 -7 -17 l0 -10 12 12 c6 6 9 14 7 17 -3 3 -9
2 -12 -2z" />
    <path d="M894 1408 l-7 -11 11 7 c7 4 12 9 12 12 0 8 -9 4 -16 -8z" />
    <path d="M444 1396 c-3 -8 -4 -23 -2 -33 l4 -18 5 33 c6 34 2 42 -7 18z" />
    <path d="M399 1353 l-15 -28 9 -52 c4 -29 13 -53 18 -53 l9 0 -2 80 c-1 44 -3
80 -3 80 0 0 -8 -12 -16 -27z" />
    <path d="M1125 899 l3 -44 -18 -35 c-10 -19 -20 -51 -23 -70 l-6 -35 14 42
c15 48 46 103 56 103 10 0 -7 60 -20 73 l-10 10 4 -44z" />
  </g>
  <g transform="translate(0.000000,259.000000) scale(0.100000,-0.100000)" fill="#f8fcc8" stroke="none">
    <path d="M640 941 c0 -10 42 -23 49 -15 7 6 -20 24 -36 24 -7 0 -13 -4 -13 -9z" />
    <path d="M735 921 c-3 -5 -1 -12 5 -16 l10 -6 0 15 c0 18 -6 21 -15 7z" />
    <path d="M876 921 c-3 -5 1 -14 9 -21 l15 -12 0 15 c0 19 -16 31 -24 18z" />
    <path d="M954 915 c1 -8 6 -18 11 -22 l8 -8 -8 14 -8 14 12 -7 c7 -5 10 -14 7
-22 -3 -7 0 -16 6 -20 l11 -7 -8 13 -8 13 12 -7 c7 -5 10 -15 7 -23 -3 -8 -2
-12 2 -9 5 3 16 -11 26 -31 l17 -36 11 11 10 10 -13 66 c-7 36 -16 66 -21 66
-4 0 -5 -15 -3 -32 l5 -33 -15 33 -15 32 -24 0 -24 0 2 -15z" />
    <path d="M700 912 c0 -4 -21 -5 -47 -3 l-47 3 58 -56 c32 -31 60 -56 61 -56 2
0 -4 19 -12 43 l-15 42 11 18 11 17 -10 0 c-5 0 -10 -3 -10 -8z" />
    <path d="M767 909 c7 -7 15 -10 18 -7 3 3 -2 9 -12 12 l-18 7 12 -12z" />
    <path d="M805 910 c3 -5 8 -10 11 -10 3 0 2 5 -1 10 -3 6 -8 10 -11 10 -3 0
-2 -4 1 -10z" />
    <path d="M840 905 c7 -9 15 -13 17 -11 7 7 -7 26 -19 26 l-10 0 12 -15z" />
    <path d="M780 676 c0 -15 33 -72 58 -98 l26 -28 23 0 23 0 0 13 0 14 21 -1
c12 -1 24 5 26 12 l5 12 -22 0 -21 0 6 10 7 11 -25 -6 -25 -7 -24 12 c-12 7
-35 24 -50 38 -16 14 -28 22 -28 18z" />
    <path d="M1130 634 c0 -8 -4 -13 -9 -10 l-9 6 6 -22 5 -21 -9 6 c-5 3 -10 -2
-10 -11 -1 -9 -3 -24 -5 -32 l-4 -15 34 -3 c18 -2 37 0 42 5 l9 9 -15 52 c-15
49 -35 70 -35 36z" />
    <path d="M920 550 c0 -7 3 -10 7 -7 3 4 3 10 0 14 -4 3 -7 0 -7 -7z" />
    <path d="M1050 550 c0 -5 7 -10 15 -10 8 0 15 5 15 10 0 6 -7 10 -15 10 -8 0
-15 -4 -15 -10z" />
    <path d="M963 543 c4 -3 10 -3 14 0 3 4 0 7 -7 7 -7 0 -10 -3 -7 -7z" />
    <path d="M993 543 c4 -3 10 -3 14 0 3 4 0 7 -7 7 -7 0 -10 -3 -7 -7z" />
    <path d="M1023 543 c4 -3 10 -3 14 0 3 4 0 7 -7 7 -7 0 -10 -3 -7 -7z" />
  </g>
  <g transform="translate(0.000000,259.000000) scale(0.100000,-0.100000)" fill="#c83c48" stroke="none">
    <path d="M1246 1001 c-3 -5 8 -14 24 -21 16 -7 35 -18 41 -26 16 -20 29 -17
29 6 l0 19 -30 16 c-33 17 -56 19 -64 6z" />
    <path d="M1210 983 c0 -13 103 -98 121 -99 l17 -1 -7 21 -8 20 -62 34 c-33 19
-61 30 -61 25z" />
    <path d="M1168 956 l-17 -13 22 -23 22 -24 -22 18 -22 18 11 -34 10 -33 41 3
c23 2 48 5 56 8 l13 4 -12 15 c-7 9 -29 29 -49 44 l-36 29 -17 -12z" />
    <path d="M1030 930 c0 -5 7 -7 15 -4 8 4 15 8 15 10 0 2 -7 4 -15 4 -8 0 -15
-4 -15 -10z" />
    <path d="M1064 918 c-6 -13 -9 -31 -6 -40 l3 -17 40 2 39 1 0 22 c0 12 -3 29
-6 38 l-6 16 -27 0 -28 0 -9 -22z" />
    <path d="M950 870 l0 -40 13 0 c6 0 17 4 24 8 l12 7 -21 33 c-11 17 -22 32
-24 32 -2 0 -4 -18 -4 -40z" />
  </g>
  <g transform="translate(0.000000,259.000000) scale(0.100000,-0.100000)" fill="#f0b58e" stroke="none">
    <path d="M738 1943 c7 -3 16 -2 19 1 4 3 -2 6 -13 5 l-19 -1 13 -5z" />
    <path d="M617 1708 c7 -29 50 -68 74 -68 10 0 23 9 29 20 l11 20 -17 0 -16 0
6 -15 5 -15 -16 0 c-16 0 -63 44 -63 60 0 5 -4 11 -9 14 l-9 6 5 -22z" />
    <path d="M1534 1639 c-3 -6 0 -15 7 -20 l14 -9 -11 0 -12 0 13 -37 c14 -39 35
-56 35 -28 0 29 -22 105 -31 105 -4 0 -11 -5 -15 -11z" />
    <path d="M1586 1615 l-6 -16 16 -6 c19 -7 26 0 18 21 -8 20 -20 21 -28 1z" />
    <path d="M1733 1554 l-6 -16 14 -9 c23 -15 58 -22 76 -15 l17 7 -43 24 c-24
14 -45 25 -47 25 -3 0 -7 -7 -11 -16z" />
    <path d="M2044 1535 l5 -15 -14 0 c-8 0 -15 -5 -15 -11 l0 -11 33 7 c17 5 45
8 60 8 l28 0 -5 14 c-4 8 -6 17 -6 19 0 2 -21 4 -46 4 l-46 0 6 -15z" />
    <path d="M1574 1512 c-6 -4 -14 -20 -18 -35 l-7 -29 23 7 c33 10 41 20 33 44
-7 22 -13 25 -31 13z" />
    <path d="M1835 1490 c-3 -5 1 -13 10 -16 22 -9 29 1 11 15 l-14 12 -7 -11z" />
    <path d="M2260 1483 c0 -5 4 -13 8 -19 11 -16 85 -64 99 -64 25 0 12 20 -34
55 -46 33 -73 44 -73 28z" />
    <path d="M1540 1425 l-35 -14 39 2 39 2 5 13 c5 15 -3 14 -48 -3z" />
    <path d="M1220 1417 c0 -14 41 -37 63 -37 13 1 -42 50 -55 50 -5 0 -8 -6 -8
-13z" />
    <path d="M951 1315 c-36 -19 -69 -39 -73 -43 -11 -11 1 -42 16 -42 21 0 146
90 146 105 0 8 -6 15 -12 15 -7 0 -42 -16 -77 -35z" />
    <path d="M1079 1333 l-14 -16 23 12 c23 12 28 21 13 21 -5 0 -15 -7 -22 -17z" />
    <path d="M740 1322 c-53 -25 -120 -76 -116 -87 5 -19 35 -16 73 8 21 13 57 31
80 40 l42 16 6 -9 c3 -6 13 -10 21 -10 l15 0 -21 30 -21 30 -22 0 c-12 0 -38
-8 -57 -18z" />
    <path d="M1130 1325 l-12 -15 15 0 c23 0 47 11 47 21 0 15 -37 10 -50 -6z" />
    <path d="M1193 1313 c4 -3 10 -3 14 0 3 4 0 7 -7 7 -7 0 -10 -3 -7 -7z" />
    <path d="M1230 1300 c0 -11 48 -25 56 -17 4 3 3 10 -1 16 -8 14 -55 14 -55 1z" />
    <path d="M408 1253 c-3 -21 -3 -40 -1 -42 2 -3 8 0 14 6 6 6 18 9 25 6 l14 -5
0 17 c0 25 -19 55 -34 55 l-14 0 -4 -37z" />
    <path d="M477 1243 c-15 -14 -6 -23 23 -23 32 0 40 14 14 24 -20 8 -29 8 -37
-1z" />
  </g>
  <g transform="translate(0.000000,259.000000) scale(0.100000,-0.100000)" fill="#e09898" stroke="none">
    <path d="M626 1229 c5 -8 -59 -19 -113 -19 l-43 0 0 -11 c0 -5 -4 -8 -9 -5
-10 7 22 -58 39 -79 l12 -15 41 0 40 0 13 -17 c7 -10 16 -15 20 -10 4 4 -3 18
-15 31 l-23 24 20 11 c11 6 38 13 60 17 l41 6 22 24 22 24 -22 0 -22 0 6 10 6
10 -20 1 c-62 4 -79 3 -75 -2z" />
  </g>
  <g transform="translate(0.000000,259.000000) scale(0.100000,-0.100000)" fill="#f8dec9" stroke="none">
    <path d="M1110 1966 c-53 -39 -76 -64 -66 -73 4 -4 21 7 39 25 18 17 46 43 62
56 44 37 17 31 -35 -8z" />
    <path d="M1357 1958 c11 -13 26 -34 33 -46 6 -13 14 -22 17 -19 2 3 -5 23 -17
46 l-20 41 -17 0 -16 0 20 -22z" />
    <path d="M596 1803 l-7 -18 12 12 c7 7 10 15 7 18 -3 3 -9 -2 -12 -12z" />
    <path d="M1430 1796 c0 -8 5 -18 10 -21 6 -3 10 1 10 9 0 8 -4 18 -10 21 -5 3
-10 -1 -10 -9z" />
    <path d="M1061 1656 l1 -106 9 6 c5 3 9 47 9 99 l0 94 -10 6 -11 7 2 -106z" />
    <path d="M646 1665 c4 -8 8 -15 10 -15 2 0 4 7 4 15 0 8 -4 15 -10 15 -5 0 -7
-7 -4 -15z" />
    <path d="M1549 1598 l-11 -20 13 7 12 8 -5 -15 -6 -15 14 0 c7 0 16 7 18 14
l6 14 19 -11 c27 -14 36 -13 22 4 -7 8 -25 19 -42 25 l-29 10 -11 -21z" />
    <path d="M1730 1542 c0 -5 12 -14 26 -20 l25 -12 -6 10 c-3 5 -15 15 -26 20
l-19 11 0 -9z" />
    <path d="M2053 1518 c-18 -6 -33 -16 -33 -23 l0 -12 56 9 c30 5 59 6 65 3 13
-9 11 9 -3 23 -14 14 -41 14 -85 0z" />
    <path d="M1590 1511 c0 -6 4 -13 10 -16 l10 -6 -6 15 c-7 18 -14 21 -14 7z" />
    <path d="M1840 1475 c14 -7 27 -11 30 -9 6 7 -22 24 -40 23 l-15 0 25 -14z" />
    <path d="M2266 1461 c-3 -5 26 -27 64 -49 39 -22 70 -37 70 -32 0 4 -9 18 -21
31 -11 13 -18 18 -14 12 l6 -13 -15 6 c-9 3 -14 11 -13 17 l2 12 -19 -3 -18
-3 8 13 c4 7 4 10 -1 6 -4 -4 -16 -3 -26 2 l-18 10 -5 -9z" />
    <path d="M1580 1433 l-24 -17 24 -6 25 -6 7 10 c10 14 10 36 0 36 -4 0 -19 -8
-32 -17z" />
    <path d="M1210 1411 c0 -19 56 -46 65 -31 3 5 -8 16 -24 25 -35 17 -41 18 -41
6z" />
    <path d="M1285 1360 c3 -5 11 -10 16 -10 6 0 7 5 4 10 -3 6 -11 10 -16 10 -6
0 -7 -4 -4 -10z" />
    <path d="M1123 1313 c4 -3 10 -3 14 0 3 4 0 7 -7 7 -7 0 -10 -3 -7 -7z" />
    <path d="M1260 1313 c0 -6 6 -13 13 -16 6 -2 -3 -7 -22 -12 l-35 -7 25 -14
c28 -16 56 -18 64 -5 3 5 -6 22 -20 38 -13 15 -25 23 -25 16z" />
    <path d="M765 1292 c-69 -30 -106 -53 -100 -62 4 -6 16 -10 27 -10 23 0 85 35
106 60 8 8 11 10 8 4 l-5 -11 29 1 c17 1 30 3 30 5 0 7 -35 30 -45 30 -5 0
-28 -8 -50 -17z" />
    <path d="M945 1275 c-27 -19 -54 -36 -60 -39 l-10 -3 12 -13 11 -12 30 21 c17
11 34 21 39 21 11 0 53 43 53 53 0 15 -27 4 -75 -28z" />
    <path d="M418 1243 l-5 -19 24 -17 23 -18 0 19 c0 10 -8 27 -19 36 l-18 17 -5
-18z" />
  </g>
  <g transform="translate(0.000000,259.000000) scale(0.100000,-0.100000)" fill="#e88c4a" stroke="none">
    <path d="M1247 2002 l-7 -9 48 -7 c26 -3 58 -13 70 -22 12 -8 22 -11 22 -6 0
19 -39 42 -82 48 l-45 6 -6 -10z" />
    <path d="M1115 1970 l-6 -10 15 6 c18 7 21 14 7 14 -6 0 -13 -4 -16 -10z" />
    <path d="M1065 1930 c-16 -16 -26 -32 -24 -34 3 -3 17 10 32 29 15 19 26 35
24 35 -2 0 -16 -13 -32 -30z" />
    <path d="M1064 1675 c0 -49 1 -71 3 -48 2 23 2 64 0 90 -2 26 -3 8 -3 -42z" />
    <path d="M1526 1663 c-12 -12 -5 -23 14 -23 11 0 20 4 20 9 0 11 -26 22 -34
14z" />
    <path d="M1595 1620 c3 -5 8 -10 11 -10 2 0 4 5 4 10 0 6 -5 10 -11 10 -5 0
-7 -4 -4 -10z" />
    <path d="M1061 1564 l1 -19 5 13 c3 7 2 16 -1 19 -3 4 -6 -2 -5 -13z" />
    <path d="M1740 1565 c0 -10 65 -45 85 -45 l20 0 -47 25 c-48 26 -58 29 -58 20z" />
    <path d="M2035 1550 c3 -5 13 -10 21 -10 8 0 14 5 14 10 0 6 -9 10 -21 10
l-20 0 6 -10z" />
    <path d="M1856 1541 c-4 -7 -5 -15 -2 -18 9 -9 19 4 14 18 l-4 13 -8 -13z" />
    <path d="M1517 1475 c-15 -14 -38 -25 -50 -25 -12 -1 -33 -7 -47 -15 l-25 -14
31 -1 c60 0 134 36 134 67 0 19 -11 16 -43 -12z" />
    <path d="M2293 1465 c0 -8 3 -13 5 -10 3 3 21 -5 41 -17 l36 -22 -12 14 c-6 8
-25 23 -41 32 l-29 17 0 -14z" />
    <path d="M1339 1423 l-14 -16 23 12 c23 12 28 21 13 21 -5 0 -15 -7 -22 -17z" />
    <path d="M928 1333 c-38 -19 -68 -42 -68 -49 l0 -14 23 0 c12 0 42 16 67 36
24 19 57 38 72 41 16 3 28 9 28 14 0 20 -59 6 -122 -28z" />
    <path d="M699 1336 c-80 -58 -169 -82 -197 -54 l-11 11 -7 -16 -6 -17 12 -15
12 -15 52 0 51 0 50 35 c28 19 67 43 87 52 21 10 38 24 38 31 l0 12 -24 0
c-12 0 -38 -11 -57 -24z" />
    <path d="M1095 1350 c-3 -5 1 -10 9 -10 8 0 18 5 21 10 3 6 -1 10 -9 10 -8 0
-18 -4 -21 -10z" />
    <path d="M1155 1340 l-6 -10 26 0 26 0 -6 10 c-3 6 -12 10 -20 10 -8 0 -17 -4
-20 -10z" />
    <path d="M1206 1321 l-6 -9 20 5 c23 6 26 13 6 13 -8 0 -17 -4 -20 -9z" />
    <path d="M408 1309 l-5 -14 28 -28 29 -28 0 13 c0 7 -11 26 -23 42 l-24 29 -5
-14z" />
  </g>
  <g transform="translate(0.000000,259.000000) scale(0.100000,-0.100000)" fill="#470101" stroke="none">
    <path d="M2080 2091 c0 -10 19 -25 25 -20 1 2 -3 10 -11 17 l-14 13 0 -10z" />
    <path d="M865 1559 c-79 -19 -117 -30 -113 -35 3 -2 44 5 92 16 l87 21 32 -10
c18 -6 47 -24 65 -40 l34 -28 -24 -6 c-12 -4 -43 -7 -68 -7 -25 0 -61 -5 -81
-10 l-35 -10 -30 -32 -29 -33 25 22 c38 33 94 53 147 52 l48 -1 -34 -9 c-18
-6 -31 -12 -28 -15 3 -3 22 -1 44 5 21 6 55 11 76 11 20 0 37 5 37 10 0 9 -15
14 -33 11 -5 -1 -6 3 -2 9 l6 10 -62 40 -62 40 -26 -1 c-14 -1 -44 -5 -66 -10z" />
    <path d="M810 1480 c-19 -10 -51 -33 -70 -50 l-35 -32 35 26 c19 14 53 36 75
47 l39 22 91 -5 90 -5 -30 7 c-16 4 -59 8 -95 8 l-65 1 -35 -19z" />
    <path d="M1130 1440 c8 -5 20 -10 25 -10 6 0 3 5 -5 10 -8 5 -19 10 -25 10 -5
0 -3 -5 5 -10z" />
  </g>
  <g transform="translate(0.000000,259.000000) scale(0.100000,-0.100000)" fill="#e8975f" stroke="none">
    <path d="M717 1706 c-4 -15 -6 -31 -2 -34 10 -10 16 6 13 35 l-3 28 -8 -29z" />
    <path d="M627 1679 c7 -7 15 -10 18 -7 3 3 -2 9 -12 12 l-18 7 12 -12z" />
    <path d="M1520 1642 l0 -13 17 3 c24 4 27 24 3 24 l-20 0 0 -14z" />
    <path d="M1550 1538 c0 -10 2 -18 5 -18 2 0 9 8 14 18 l10 19 -15 0 -14 0 0
-19z" />
    <path d="M1763 1548 l-12 -14 17 0 c9 -1 26 -5 37 -9 l19 -9 -14 16 c-8 9 -18
14 -22 12 -3 -2 -8 1 -10 7 l-4 11 -11 -14z" />
    <path d="M2055 1550 c3 -5 23 -10 43 -10 l37 0 -15 10 c-8 5 -28 10 -43 10
l-28 0 6 -10z" />
    <path d="M1545 1496 c-11 -8 -20 -20 -20 -27 0 -8 -20 -21 -45 -31 -25 -9 -40
-17 -34 -17 15 -1 107 30 117 39 5 4 7 17 5 29 l-3 22 -20 -15z m5 -10 c0 -3
-5 -8 -12 -12 l-11 -7 7 11 c7 12 16 16 16 8z" />
    <path d="M2262 1486 c10 -7 15 -16 11 -20 -4 -4 1 -4 11 0 l19 7 -19 14 c-23
17 -45 17 -22 -1z" />
    <path d="M1220 1422 c0 -5 7 -9 15 -9 8 0 12 4 9 9 -3 4 -9 8 -15 8 -5 0 -9
-4 -9 -8z" />
    <path d="M1323 1413 c4 -3 10 -3 14 0 3 4 0 7 -7 7 -7 0 -10 -3 -7 -7z" />
    <path d="M997 1356 l6 -9 -17 6 -17 7 6 -11 7 -10 -18 3 c-10 2 -19 -1 -19 -7
0 -5 -4 -16 -8 -22 l-8 -13 11 0 c12 0 110 48 110 54 0 2 -13 6 -29 8 l-30 4
6 -10z" />
    <path d="M763 1353 c4 -3 -10 -15 -31 -25 -20 -10 -59 -34 -87 -53 l-50 -36
-45 3 -45 3 0 13 c0 17 -19 16 -23 -1 l-3 -14 28 -12 28 -11 53 9 53 8 39 32
c50 40 106 64 131 56 l19 -6 -6 -11 -7 -11 13 8 13 8 -29 24 c-16 12 -35 23
-43 23 -8 0 -11 -3 -8 -7z" />
    <path d="M1103 1343 c4 -3 10 -3 14 0 3 4 0 7 -7 7 -7 0 -10 -3 -7 -7z" />
    <path d="M1165 1330 c4 -6 11 -8 16 -5 14 9 11 15 -7 15 l-15 0 6 -10z" />
    <path d="M411 1300 l-14 -8 23 -12 c12 -6 24 -9 28 -6 3 3 0 6 -7 6 -7 0 -10
4 -6 9 8 14 -8 21 -24 11z" />
    <path d="M850 1280 c0 -13 28 -25 38 -16 3 4 0 11 -8 16 -20 13 -30 12 -30 0z" />
    <path d="M400 1219 c0 -5 5 -7 10 -4 6 3 10 8 10 11 0 2 -4 4 -10 4 -5 0 -10
-5 -10 -11z" />
  </g>
  <g transform="translate(0.000000,259.000000) scale(0.100000,-0.100000)" fill="#f0c8ac" stroke="none">
    <path d="M1196 1998 c3 -4 24 -8 47 -8 23 0 59 -5 80 -11 l37 -10 16 -25 c9
-13 20 -39 24 -57 l8 -32 1 23 c1 28 -20 71 -47 95 l-20 18 -75 8 c-42 4 -73
3 -71 -1z" />
    <path d="M1044 1898 l-7 -11 11 7 c12 7 16 16 8 16 -3 0 -8 -5 -12 -12z" />
    <path d="M1052 1830 c0 -14 4 -38 8 -55 l8 -30 0 25 c0 14 -4 39 -8 55 l-8 30
0 -25z" />
    <path d="M1420 1823 c0 -6 8 -17 18 -24 l17 -14 -15 20 c-8 11 -16 22 -17 24
-2 2 -3 0 -3 -6z" />
    <path d="M1554 1608 l-7 -11 11 7 c7 4 12 9 12 12 0 8 -9 4 -16 -8z" />
    <path d="M1593 1613 c-7 -3 -13 -9 -13 -14 0 -6 5 -7 10 -4 6 3 10 1 10 -5 0
-6 4 -9 9 -6 5 4 12 0 14 -6 l5 -13 1 11 c2 17 -23 42 -36 37z" />
    <path d="M1160 1580 l-15 -10 12 0 c6 0 15 5 18 10 8 12 4 12 -15 0z" />
    <path d="M1235 1580 c3 -5 8 -10 11 -10 2 0 4 5 4 10 0 6 -5 10 -11 10 -5 0
-7 -4 -4 -10z" />
    <path d="M1730 1540 c0 -7 3 -10 7 -7 3 4 3 10 0 14 -4 3 -7 0 -7 -7z" />
    <path d="M1750 1530 c0 -7 3 -10 7 -7 3 4 3 10 0 14 -4 3 -7 0 -7 -7z" />
    <path d="M2065 1520 l-20 -9 20 1 c11 0 31 4 45 8 l25 8 -25 0 c-14 0 -34 -3
-45 -8z" />
    <path d="M1773 1513 c4 -3 10 -3 14 0 3 4 0 7 -7 7 -7 0 -10 -3 -7 -7z" />
    <path d="M2264 1458 l-7 -11 11 7 c7 4 12 9 12 12 0 8 -9 4 -16 -8z" />
    <path d="M2284 1448 l-7 -11 11 7 c7 4 12 9 12 12 0 8 -9 4 -16 -8z" />
    <path d="M1566 1425 c-11 -8 -15 -15 -9 -15 6 0 16 7 23 15 16 19 11 19 -14 0z" />
    <path d="M1216 1422 l-7 -12 11 0 c6 0 8 -4 5 -10 l-6 -10 17 7 17 6 -7 -11
-7 -12 17 7 17 6 -7 -11 -7 -12 15 6 15 6 -12 13 c-7 7 -15 11 -19 8 -5 -2 -8
1 -8 7 0 6 -4 9 -9 6 -5 -4 -11 -1 -13 6 l-4 12 -8 -12z" />
    <path d="M1138 1313 c7 -3 16 -2 19 1 4 3 -2 6 -13 5 l-19 -1 13 -5z" />
    <path d="M808 1303 c7 -3 16 -2 19 1 4 3 -2 6 -13 5 l-19 -1 13 -5z" />
    <path d="M945 1274 c-27 -18 -43 -34 -35 -34 8 0 35 16 59 35 56 45 41 44 -24
-1z" />
    <path d="M1230 1299 c0 -5 5 -7 10 -4 6 3 10 8 10 11 0 2 -4 4 -10 4 -5 0 -10
-5 -10 -11z" />
    <path d="M1258 1283 c6 -2 18 -2 25 0 6 3 1 5 -13 5 -14 0 -19 -2 -12 -5z" />
    <path d="M697 1261 c-35 -23 -43 -31 -29 -31 6 0 24 11 39 25 33 28 29 31 -10
6z" />
    <path d="M436 1239 c9 -10 18 -19 20 -19 1 0 1 8 0 17 -2 9 -11 17 -20 19
l-18 2 18 -19z" />
    <path d="M420 1140 c0 -7 3 -10 7 -7 3 4 3 10 0 14 -4 3 -7 0 -7 -7z" />
    <path d="M425 1090 c3 -5 8 -10 11 -10 3 0 2 5 -1 10 -3 6 -8 10 -11 10 -3 0
-2 -4 1 -10z" />
  </g>
  <g transform="translate(0.000000,259.000000) scale(0.100000,-0.100000)" fill="#a5274d" stroke="none">
    <path d="M1351 930 c0 -14 -3 -40 -7 -57 l-6 -33 26 0 26 0 0 24 0 24 -16 6
c-8 3 -12 10 -9 16 3 5 1 18 -4 27 l-10 18 0 -25z" />
    <path d="M1251 706 l-12 -14 9 -6 c6 -3 15 1 21 8 l12 14 -9 6 c-6 3 -15 -1
-21 -8z m19 0 c0 -3 -5 -8 -12 -12 l-11 -7 7 11 c7 12 16 16 16 8z" />
    <path d="M966 665 c-8 -23 -9 -22 17 -30 l22 -8 -50 -7 -50 -7 50 -2 c57 -2
129 -24 118 -36 -5 -4 2 -3 13 3 12 6 24 20 27 31 l5 19 -50 -2 -50 -1 -23 28
-22 29 -7 -17z" />
    <path d="M1218 650 c-7 -11 -21 -20 -30 -20 -10 0 -18 -4 -18 -10 0 -5 16 -9
35 -8 l36 1 -12 7 -11 7 11 22 c15 27 5 28 -11 1z" />
  </g>
  <g transform="translate(0.000000,259.000000) scale(0.100000,-0.100000)" fill="#e8a471" stroke="none">
    <path d="M1153 1993 c-10 -10 -14 -15 -8 -11 6 4 22 12 36 17 l24 10 -16 0
c-9 1 -25 -7 -36 -16z" />
    <path d="M1400 1900 c0 -7 3 -10 7 -7 3 4 3 10 0 14 -4 3 -7 0 -7 -7z" />
    <path d="M1442 1775 l0 -30 5 18 c2 9 2 23 0 30 -3 6 -5 -1 -5 -18z" />
    <path d="M1420 1700 c0 -7 3 -10 7 -7 3 4 3 10 0 14 -4 3 -7 0 -7 -7z" />
    <path d="M1541 1643 c-7 -8 -11 -16 -8 -19 2 -2 10 2 17 11 17 20 9 27 -9 8z" />
    <path d="M1590 1626 c0 -2 8 -10 18 -17 l17 -14 -14 18 c-13 16 -21 21 -21 13z" />
    <path d="M1552 1470 l-12 -20 10 0 c6 0 13 7 17 15 9 24 -1 27 -15 5z" />
    <path d="M2310 1460 c0 -5 5 -10 11 -10 5 0 7 5 4 10 -3 6 -8 10 -11 10 -2 0
-4 -4 -4 -10z" />
    <path d="M2340 1440 c0 -7 3 -10 7 -7 3 4 3 10 0 14 -4 3 -7 0 -7 -7z" />
    <path d="M2360 1426 c0 -2 8 -10 18 -17 l17 -14 -14 18 c-13 16 -21 21 -21 13z" />
    <path d="M938 1308 c-42 -23 -75 -45 -72 -50 l6 -9 14 12 c8 6 47 29 87 50 39
21 65 38 57 39 -8 0 -50 -19 -92 -42z" />
    <path d="M1093 1343 c4 -3 10 -3 14 0 3 4 0 7 -7 7 -7 0 -10 -3 -7 -7z" />
    <path d="M743 1318 c-61 -34 -139 -88 -126 -88 6 0 33 16 59 36 55 42 110 68
131 60 l14 -6 -6 10 c-9 15 -27 12 -72 -12z" />
    <path d="M1140 1336 c0 -2 9 -6 20 -9 l20 -5 -6 9 c-5 9 -34 13 -34 5z" />
    <path d="M1245 1310 l-20 -9 23 0 c12 -1 22 4 22 9 0 6 -1 10 -2 9 -2 0 -12
-4 -23 -9z" />
    <path d="M445 1261 c-3 -5 -2 -12 3 -15 5 -3 9 1 9 9 0 17 -3 19 -12 6z" />
    <path d="M500 1235 c14 -8 34 -14 45 -14 l20 0 -40 14 c-50 18 -57 18 -25 0z" />
  </g>
  <g transform="translate(0.000000,259.000000) scale(0.100000,-0.100000)" fill="#e87c38" stroke="none">
    <path d="M1527 1663 c-10 -10 -8 -43 2 -43 5 0 8 11 7 25 0 14 -1 25 -2 25 0
0 -4 -3 -7 -7z" />
    <path d="M1552 1545 l0 -30 5 18 c2 9 2 23 0 30 -3 6 -5 -1 -5 -18z" />
    <path d="M1743 1563 c4 -3 10 -3 14 0 3 4 0 7 -7 7 -7 0 -10 -3 -7 -7z" />
    <path d="M2048 1553 c12 -2 32 -2 45 0 12 2 2 4 -23 4 -25 0 -35 -2 -22 -4z" />
    <path d="M1846 1535 l-20 -15 16 0 c9 0 18 7 22 15 7 18 6 18 -18 0z" />
    <path d="M2240 1506 c0 -3 14 -12 30 -21 17 -9 30 -13 30 -11 0 3 -13 12 -30
21 -16 9 -30 13 -30 11z" />
    <path d="M1529 1483 l-14 -18 18 14 c9 7 17 15 17 17 0 8 -8 3 -21 -13z" />
    <path d="M2315 1460 c3 -5 8 -10 11 -10 3 0 2 5 -1 10 -3 6 -8 10 -11 10 -3 0
-2 -4 1 -10z" />
    <path d="M1443 1443 c4 -3 10 -3 14 0 3 4 0 7 -7 7 -7 0 -10 -3 -7 -7z" />
    <path d="M1358 1433 c7 -3 16 -2 19 1 4 3 -2 6 -13 5 l-19 -1 13 -5z" />
    <path d="M699 1336 c-81 -59 -168 -82 -198 -53 l-14 12 5 -15 5 -15 39 -3 39
-3 45 21 c25 11 57 30 72 42 15 11 44 24 65 28 l38 8 -31 1 -31 1 -34 -24z" />
    <path d="M903 1320 c-29 -17 -53 -35 -53 -40 0 -6 25 6 55 26 48 32 62 44 53
44 -2 0 -27 -14 -55 -30z" />
    <path d="M410 1316 c0 -2 8 -10 18 -17 l17 -14 -14 18 c-13 16 -21 21 -21 13z" />
    <path d="M445 1270 c3 -5 8 -10 11 -10 3 0 2 5 -1 10 -3 6 -8 10 -11 10 -3 0
-2 -4 1 -10z" />
  </g>
  <g transform="translate(0.000000,259.000000) scale(0.100000,-0.100000)" fill="#98cc30" stroke="none">
    <path d="M670 1697 c0 -6 4 -18 9 -26 l9 -14 17 7 16 6 -3 16 c-2 10 -13 19
-25 20 l-23 4 0 -13z" />
    <path d="M1220 1655 l13 -16 -11 -11 c-14 -14 -33 -1 -25 17 l5 15 -20 0 -21
0 -3 -17 c-2 -10 0 -28 6 -40 l9 -23 37 0 38 0 11 14 c7 8 11 27 9 42 l-3 27
-29 4 -29 4 13 -16z" />
  </g>
  <g transform="translate(0.000000,259.000000) scale(0.100000,-0.100000)" fill="#f8f0e8" stroke="none">
    <path d="M1577 1593 c-4 -3 -7 -16 -6 -27 l0 -21 10 24 c10 24 8 36 -4 24z" />
    <path d="M2080 1500 l-25 -8 46 2 c26 0 45 4 42 9 -5 9 -29 8 -63 -3z" />
    <path d="M1601 1484 l1 -19 5 13 c3 7 2 16 -1 19 -3 4 -6 -2 -5 -13z" />
    <path d="M1865 1460 c3 -5 8 -10 11 -10 3 0 2 5 -1 10 -3 6 -8 10 -11 10 -3 0
-2 -4 1 -10z" />
    <path d="M2260 1456 c0 -3 14 -12 30 -21 17 -9 30 -13 30 -11 0 3 -13 12 -30
21 -16 9 -30 13 -30 11z" />
    <path d="M1607 1437 c-4 -10 -7 -24 -7 -30 l0 -11 11 11 c6 6 9 19 7 29 l-4
19 -7 -18z" />
    <path d="M2335 1410 c3 -5 8 -10 11 -10 3 0 2 5 -1 10 -3 6 -8 10 -11 10 -3 0
-2 -4 1 -10z" />
    <path d="M1227 1389 c7 -7 15 -10 18 -7 3 3 -2 9 -12 12 l-18 7 12 -12z" />
    <path d="M1287 1359 c7 -7 15 -10 18 -7 3 3 -2 9 -12 12 l-18 7 12 -12z" />
    <path d="M810 1280 c-8 -5 -10 -10 -5 -10 6 0 17 5 25 10 8 5 11 10 5 10 -5 0
-17 -5 -25 -10z" />
    <path d="M850 1276 c0 -2 8 -10 18 -17 l17 -14 -14 18 c-13 16 -21 21 -21 13z" />
    <path d="M1213 1273 c4 -3 10 -3 14 0 3 4 0 7 -7 7 -7 0 -10 -3 -7 -7z" />
    <path d="M1280 1260 l-25 -8 22 -1 c12 -1 25 4 28 9 3 6 5 10 3 9 -2 -1 -14
-5 -28 -9z" />
    <path d="M734 1238 l-7 -11 11 7 c12 7 16 16 8 16 -3 0 -8 -5 -12 -12z" />
    <path d="M435 1210 c3 -5 8 -10 11 -10 3 0 2 5 -1 10 -3 6 -8 10 -11 10 -3 0
-2 -4 1 -10z" />
    <path d="M893 1213 c4 -3 10 -3 14 0 3 4 0 7 -7 7 -7 0 -10 -3 -7 -7z" />
    <path d="M432 1070 c0 -14 2 -19 5 -12 2 6 2 18 0 25 -3 6 -5 1 -5 -13z" />
  </g>
  <g transform="translate(0.000000,259.000000) scale(0.100000,-0.100000)" fill="#b06460" stroke="none">
    <path d="M524 1123 l7 -13 -12 0 -12 0 19 -21 c10 -12 32 -30 47 -41 l28 -20
24 6 c14 4 25 11 25 16 0 5 -11 21 -25 35 l-26 25 -27 0 c-16 0 -34 6 -41 13
l-14 12 7 -12z" />
  </g>
  <g transform="translate(0.000000,259.000000) scale(0.100000,-0.100000)" fill="#e0e4b0" stroke="none">
    <path d="M597 930 l17 -30 38 0 38 0 0 15 c0 16 -24 28 -78 38 l-33 7 18 -30z" />
    <path d="M950 935 l0 -15 25 0 25 0 0 15 0 15 -25 0 -25 0 0 -15z" />
    <path d="M1020 936 c0 -9 5 -16 10 -16 6 0 10 4 10 9 0 6 -4 13 -10 16 l-10 6
0 -15z" />
  </g>
  <g transform="translate(0.000000,259.000000) scale(0.100000,-0.100000)" fill="#609800" stroke="none">
    <path d="M670 1716 c0 -9 5 -16 10 -16 6 0 10 4 10 9 0 6 -4 13 -10 16 l-10 6
0 -15z" />
    <path d="M1180 1664 l-25 -15 34 5 c18 3 37 6 42 6 5 0 9 5 9 10 0 15 -31 12
-60 -6z" />
  </g>
  <g transform="translate(0.000000,259.000000) scale(0.100000,-0.100000)" fill="#606460" stroke="none">
    <path d="M2150 2096 c-6 -8 -21 -17 -33 -19 l-22 -4 21 -2 c11 0 29 8 39 19
10 11 16 20 13 20 -3 0 -11 -6 -18 -14z" />
  </g>
</svg>